<?xml version="1.0" encoding="UTF-8" standalone="no"?>
<svg
   xmlns:dc="http://purl.org/dc/elements/1.1/"
   xmlns:cc="http://creativecommons.org/ns#"
   xmlns:rdf="http://www.w3.org/1999/02/22-rdf-syntax-ns#"
   xmlns:svg="http://www.w3.org/2000/svg"
   xmlns="http://www.w3.org/2000/svg"
   viewBox="0 0 385 422"
   height="422"
   width="385"
   id="svg24"
   version="1.1">
  <metadata
     id="metadata30">
    <rdf:RDF>
      <cc:Work
         rdf:about="">
        <dc:format>image/svg+xml</dc:format>
        <dc:type
           rdf:resource="http://purl.org/dc/dcmitype/StillImage" />
        <dc:title></dc:title>
      </cc:Work>
    </rdf:RDF>
  </metadata>
  <defs
     id="defs28" />
  <g
     id="g32">
    <path
       id="path36"
       d="m 159.40843,393.17944 c -1.65,-0.18577 -7.725,-0.83557 -13.5,-1.44401 -35.13897,-3.70216 -74.148143,-14.28657 -109.920173,-29.82479 -13.2201,-5.74238 -13.07983,-5.56474 -13.07983,-16.56512 0,-28.62769 8.82008,-39.67543 41,-51.35518 4.675,-1.6968 19.075,-6.48554 32,-10.64165 27.726013,-8.91546 42.605143,-14.74185 45.852903,-17.95516 1.99229,-1.97115 2.43443,-3.63473 2.88485,-10.85435 l 0.53194,-8.52642 -7.88484,-0.61948 c -23.77245,-1.86772 -35.79135,-4.39354 -48.210923,-10.13173 -6.20749,-2.86804 -21.17393,-12.77188 -21.17393,-14.01156 0,-0.20765 2.26695,-1.35276 5.03767,-2.54469 6.33245,-2.72415 12.013,-9.07099 16.5369,-18.47657 7.06293,-14.68443 8.12942,-22.60278 10.42622,-77.41188 1.169613,-27.910871 2.631143,-38.158294 7.530543,-52.799917 5.70318,-17.043706 14.25253,-29.544865 26.28354,-38.432691 15.35513,-11.3435 41.17389,-18.381355 57.82349,-15.76192 7.14061,1.123415 17.62475,5.43844 22.83604,9.398785 5.22081,3.967577 9.273,5.595742 13.92672,5.595742 6.39053,0 14.20953,1.81602 20.59888,4.784239 6.96235,3.234409 16.45293,12.773815 20.73324,20.839898 3.98051,7.501132 8.57194,21.383269 10.37737,31.375863 1.35275,7.48716 1.67757,32.860121 0.92174,72.000001 -0.29956,15.51198 -0.0908,18.40881 1.83774,25.5 4.40506,16.19736 12.21473,27.84343 22.85151,34.077 l 4.47397,2.62192 -5.34778,3.86005 c -15.61704,11.27241 -33.57673,16.82878 -60.09779,18.59306 l -9.75,0.64861 v 9.19469 c 0,10.13167 0.022,10.17418 7.47859,14.43404 6.53986,3.73615 16.46042,7.34845 48.02141,17.4857 40.72526,13.08076 51.01501,18.20586 58.55515,29.16509 5.07339,7.37391 6.7545,13.85255 7.11899,27.43505 0.29467,10.98065 0.14447,12.27588 -1.56891,13.53005 -1.04212,0.76282 -8.24212,4.07376 -16,7.35765 -36.60726,15.49575 -73.4907,24.87738 -112.51584,28.61941 -13.6887,1.31257 -57.48535,1.86523 -66.58939,0.84027 z m 40.55394,-16.21742 c 1.81723,-4.10817 2.09156,-4.32845 3.312,-2.6594 2.77891,3.80038 3.57422,0.79828 2.98589,-11.27096 -0.45081,-9.24826 -1.0627,-12.8202 -2.90612,-16.96481 -1.28428,-2.8875 -1.97467,-5.25 -1.53419,-5.25 1.27729,0 9.86329,6.82444 10.32368,8.20561 0.2298,0.68938 -0.0228,2.42078 -0.56137,3.84755 -1.16433,3.08468 -0.0988,8.25518 1.58547,7.69374 0.65204,-0.21735 1.44366,-1.48682 1.75916,-2.82104 0.50535,-2.13716 0.6574,-2.20786 1.27758,-0.59407 1.06086,2.76049 0.84496,12.16716 -0.3515,15.31408 -1.23916,3.25923 -0.40194,7.67704 1.34234,7.08321 0.70226,-0.23907 1.27163,-2.47984 1.35205,-5.32104 0.25243,-8.91735 0.14875,-8.59204 2.36107,-7.40804 3.31004,1.77148 2.58694,-3.40402 -1,-7.15742 -1.65,-1.72656 -3,-3.67032 -3,-4.31945 0,-2.53927 -6.34015,-10.55996 -10.55336,-13.35068 -3.82705,-2.53493 -4.15998,-3.01415 -2.41167,-3.47134 1.11558,-0.29173 4.15158,-0.006 6.74668,0.63423 3.98949,0.98475 4.87681,1.65489 5.74416,4.3382 1.27367,3.9403 4.53073,7.66992 5.68772,6.51293 0.48105,-0.48105 0.3892,-2.10118 -0.20822,-3.67251 -0.98231,-2.58367 -0.93092,-2.69826 0.63363,-1.41284 2.55255,2.09715 7.36106,10.03027 7.36106,12.14432 0,2.83689 2.87003,7.75456 4.52568,7.75456 2.22775,0 1.76868,-3.49269 -0.87711,-6.67327 -1.29329,-1.5547 -2.90691,-3.88181 -3.58583,-5.17136 -1.12448,-2.13584 -1.05615,-2.28805 0.76728,-1.70932 1.10091,0.34942 2.28095,0.18341 2.6223,-0.3689 0.88818,-1.43711 -3.06867,-5.07715 -5.51904,-5.07715 -1.1367,0 -3.4992,-1.07188 -5.25,-2.38195 -5.36016,-4.01083 -9.36972,-5.61594 -15.67484,-6.27496 -5.69635,-0.59538 -5.92055,-0.71635 -3.92203,-2.11617 1.16582,-0.81657 4.14146,-2.09315 6.61253,-2.83683 4.42569,-1.33193 4.53741,-1.30758 7.47388,1.62888 1.66768,1.66769 4.04856,2.98103 5.4041,2.98103 2.85229,0 3.01819,-0.68493 0.76809,-3.17126 -4.34969,-4.80635 6.29632,-0.20852 11.83084,5.10954 4.26003,4.09342 7.82415,5.28618 7.82415,2.61842 0,-1.65873 -3.74831,-4.5567 -5.89377,-4.5567 -0.79681,0 -2.26749,-0.74095 -3.26818,-1.64656 -1.7234,-1.55966 -1.72764,-1.71369 -0.0803,-2.91824 2.28821,-1.67319 1.01123,-2.81017 -3.01641,-2.68571 -20.52732,0.63435 -21.29293,0.73399 -26.53431,3.45328 l -5.20954,2.70278 1.47207,-2.84666 c 0.80963,-1.56566 2.90186,-4.27646 4.6494,-6.024 2.57814,-2.57813 3.66802,-3.04299 5.7792,-2.46494 6.8557,1.87713 12.41446,-0.93869 6.35185,-3.21757 -2.67475,-1.00541 -2.62003,-1.05484 1.99985,-1.80656 2.61242,-0.42507 6.21242,-0.47129 8,-0.10271 7.64854,1.57707 10.53429,1.71518 11.26123,0.53896 1.31689,-2.13077 -1.8453,-3.02901 -8.34813,-2.37134 -6.23374,0.63046 -6.31587,0.60699 -5.03785,-1.43943 0.71455,-1.14419 0.99315,-2.38638 0.61911,-2.76042 -0.95149,-0.95149 -6.48966,1.4834 -7.12199,3.13121 -0.28682,0.74744 -2.77785,2.32964 -5.53562,3.516 -4.60529,1.98114 -11.68837,8.44996 -14.77779,13.49622 -1.07669,1.75866 -1.19685,1.62778 -1.25,-1.36149 -0.0324,-1.81895 0.43402,-5.2644 1.03638,-7.65657 0.95742,-3.80227 1.50621,-4.42649 4.36271,-4.96237 3.57081,-0.66989 7.11131,-3.84386 6.10466,-5.47266 -0.43239,-0.69961 -1.48999,-0.69911 -3.33296,0.002 l -2.6996,1.02638 2.485,-2.66191 c 2.88256,-3.0882 9.05406,-6.46769 11.81029,-6.46769 2.59282,0 7.56604,-4.00866 6.40886,-5.16584 -1.09934,-1.09934 -4.40318,0.24781 -9.23416,3.76524 l -3.5,2.54835 -0.50837,-2.8155 -0.50837,-2.81551 -2.21619,2.21619 c -1.21891,1.21891 -2.52399,3.46514 -2.90018,4.99163 -0.3762,1.52649 -1.79035,4.23703 -3.14258,6.02341 -3.35468,4.43177 -5.12377,9.78804 -5.20265,15.75203 l -0.0661,5 -1.91612,-2.49401 c -1.05387,-1.3717 -2.4714,-4.47727 -3.15008,-6.90126 -1.13152,-4.04139 -1.06581,-4.54341 0.79154,-6.0474 2.78428,-2.25457 4.59476,-5.89667 3.87004,-7.78527 -0.51121,-1.33219 -0.99897,-1.20601 -3.20122,0.82814 l -2.59811,2.3998 0.75089,-2.5 c 1.3566,-4.51658 3.70648,-8.43572 7.6314,-12.72766 3.92643,-4.29359 4.95908,-7.27234 2.52112,-7.27234 -1.76045,0 -4.22576,2.86032 -5.17141,6 -0.41414,1.375 -1.32463,3.32661 -2.02331,4.33691 -1.21585,1.75814 -1.29873,1.74742 -1.93268,-0.25 -0.7469,-2.35324 -2.06735,-2.72865 -2.80809,-0.79833 -0.89477,2.33174 0.26438,23.14659 1.45968,26.21142 0.6435,1.65 2.02209,4.2375 3.06351,5.75 1.04142,1.5125 1.51298,2.75 1.04791,2.75 -1.15903,0 -5.2203,-2.78105 -8.56964,-5.86828 -2.46032,-2.26777 -2.70705,-3.04169 -2.15127,-6.74788 0.82398,-5.49472 -0.19136,-8.94272 -2.15379,-7.31404 -0.77874,0.6463 -1.45648,2.13249 -1.50609,3.30264 -0.0604,1.4243 -0.41819,0.98453 -1.08248,-1.33043 -0.92778,-3.23312 -0.74824,-7.66255 0.65023,-16.04201 0.32127,-1.925 0.12025,-4.175 -0.44672,-5 -1.75899,-2.55955 -3.10807,0.81021 -2.80242,7 0.25562,5.17681 0.13937,5.486 -1.97842,5.26179 -3.20082,-0.33887 -2.9388,2.86587 0.56851,6.95341 1.55018,1.80664 3.42954,4.80709 4.17635,6.66766 1.88382,4.69326 5.6705,8.94897 10.93126,12.28524 l 4.46544,2.8319 h -4.54656 c -6.82988,0 -10.51651,-1.60753 -11.16904,-4.87019 -0.71138,-3.55691 -4.02848,-7.64801 -5.4758,-6.75352 -0.77826,0.481 -0.8286,1.52907 -0.16372,3.40911 0.82648,2.33699 0.40237,2.10385 -3.04888,-1.67603 -2.66442,-2.91813 -4.21773,-5.69659 -4.63158,-8.28467 -0.67365,-4.21275 -3.9469,-9.19556 -5.43605,-8.27521 -1.57762,0.97502 -1.02687,2.99173 2.06187,7.55003 3.53717,5.22013 3.65458,5.90048 1.01817,5.90048 -1.1,0 -2,0.41734 -2,0.92742 0,1.57936 5.15099,5.07258 7.47987,5.07258 1.21559,0 2.98699,0.85839 3.93645,1.90753 2.68838,2.97064 11.02424,6.11587 16.53821,6.24009 5.7612,0.1298 5.67115,1.21036 -0.3279,3.93454 -5.28579,2.40029 -7.88429,2.3956 -10.06873,-0.0182 -2.13877,-2.36332 -7.29138,-4.30424 -8.07227,-3.04073 -0.30722,0.49709 0.42296,1.88534 1.62263,3.08501 l 2.18121,2.18121 -2.89474,-0.71315 c -3.74531,-0.92267 -11.39473,-5.3756 -11.39473,-6.63315 0,-0.96757 -5.81935,-4.93228 -7.25,-4.93941 -0.4125,-0.002 -0.75,0.6386 -0.75,1.42368 0,1.81899 4.72344,5.57258 7.01241,5.57258 2.76002,0 4.32255,2.47712 2.51093,3.98063 -2.8653,2.37799 -0.38805,2.94543 11.35379,2.6007 11.75962,-0.34525 12.39914,-0.49892 22.50456,-5.40752 1.61896,-0.78639 -2.807,5.84608 -5.90483,8.84862 -2.81816,2.73146 -3.30138,2.87008 -6.19621,1.7774 -2.42596,-0.91569 -3.73682,-0.91301 -5.76655,0.0118 -3.14765,1.43417 -2.44671,3.17651 1.29492,3.21879 2.38818,0.027 2.48481,0.15028 0.85876,1.0957 -2.15583,1.25345 -9.8397,1.41152 -17.91778,0.36859 -3.93341,-0.50783 -5.75,-0.39843 -5.75,0.34629 0,2.09722 3.71485,3.04397 9.58171,2.44193 5.37375,-0.55144 5.79536,-0.45841 4.5822,1.01108 -0.73485,0.89011 -1.05794,2.06845 -0.71797,2.61852 0.81705,1.32202 3.46731,0.32481 6.55406,-2.4661 1.375,-1.24321 4.075,-2.90905 6,-3.70187 4.86487,-2.0036 9.82577,-6.40037 13.1681,-11.67067 l 2.8319,-4.46544 -0.0564,4.44578 c -0.0862,6.78819 -1.98355,11.38082 -4.87022,11.78848 -3.32238,0.46918 -7.07338,3.06623 -7.07338,4.8973 0,1.14443 0.72628,1.36473 3,0.90999 1.65,-0.33 3,-0.42518 3,-0.21151 0,1.20023 -9.0601,6.7662 -12.47812,7.66579 -7.20804,1.89708 -11.38551,5.89572 -6.15938,5.89572 1.29937,0 4.06124,-1.35 6.1375,-3 4.43259,-3.52258 5.5,-3.71665 5.5,-1 0,4.33741 4.00539,0.81056 5.94653,-5.23607 0.65966,-2.05484 1.62298,-3.99787 2.14072,-4.31785 2.24497,-1.38747 5.30192,-9.44499 5.86009,-15.44608 l 0.60458,-6.5 2.102,4 c 3.64183,6.93021 3.88233,10.12193 0.95942,12.73286 -3.13126,2.79704 -4.58922,7.76714 -2.27845,7.76714 0.85344,0 2.29388,-1.0125 3.20099,-2.25 l 1.64929,-2.25 -0.68515,2.5 c -1.32902,4.84939 -4.71728,11.04591 -6.58708,12.04659 -2.31734,1.24021 -5.23233,6.62761 -4.35453,8.04792 0.99263,1.6061 4.25495,-1.88414 6.49553,-6.94934 z"
       style="fill:#da76ab" />
  </g>
</svg>
