<?xml version="1.0" encoding="UTF-8" standalone="no"?>
<svg
   xmlns:dc="http://purl.org/dc/elements/1.1/"
   xmlns:cc="http://creativecommons.org/ns#"
   xmlns:rdf="http://www.w3.org/1999/02/22-rdf-syntax-ns#"
   xmlns:svg="http://www.w3.org/2000/svg"
   xmlns="http://www.w3.org/2000/svg"
   viewBox="0 0 444 421"
   height="421"
   width="444"
   id="svg38"
   version="1.1">
  <metadata
     id="metadata44">
    <rdf:RDF>
      <cc:Work
         rdf:about="">
        <dc:format>image/svg+xml</dc:format>
        <dc:type
           rdf:resource="http://purl.org/dc/dcmitype/StillImage" />
        <dc:title></dc:title>
      </cc:Work>
    </rdf:RDF>
  </metadata>
  <defs
     id="defs42" />
  <g
     id="g46">
    <path
       id="path50"
       d="m 159.90894,396.01861 c -11.96388,-4.40588 -19.31797,-11.80008 -23.4937,-23.62182 -5.72503,-16.20789 2.99298,-35.50941 19.71114,-43.64011 5.31386,-2.58434 7.08639,-2.92254 15.5,-2.95738 8.45662,-0.035 10.12469,0.27062 15.18782,2.78278 6.9334,3.44014 15.03531,11.77148 18.30023,18.81846 10.52361,22.71413 -5.83585,49.01153 -31.39938,50.47369 -6.17115,0.35297 -8.75006,0.006 -13.80611,-1.85562 z m 165.71744,0.90078 c -7.63659,-2.21147 -11.6652,-4.6432 -16.9504,-10.23153 -7.62127,-8.05836 -9.43141,-12.84864 -9.43141,-24.95892 0,-8.12859 0.40663,-10.89655 2.17284,-14.79076 3.02096,-6.66074 11.21054,-14.98465 18.02115,-18.31676 4.96742,-2.43033 6.89105,-2.78973 15.18782,-2.83763 8.26524,-0.0477 10.23763,0.29094 15.17515,2.60556 7.94563,3.72477 14.22196,9.86952 18.07492,17.69598 2.97849,6.05019 3.24953,7.39676 3.24512,16.12258 -0.004,8.49425 -0.3076,10.09694 -2.81256,14.86124 -6.60354,12.55962 -17.67931,19.96978 -30.99745,20.73861 -4.217,0.24344 -9.04412,-0.12354 -11.68518,-0.88837 z M 118.19067,319.10553 c -5.91498,-1.38643 -10.30583,-5.2122 -11.65339,-10.15364 -1.1983,-4.39412 -1.13439,-6.14395 1.59682,-43.72295 2.04539,-28.14282 2.97394,-97.52108 1.64621,-123 -1.74499,-33.48601 -7.78679,-55.788584 -19.975585,-73.737375 -12.2471,-18.034652 -28.06507,-25.131732 -52.871,-23.721731 -11.18708,0.635889 -12.55332,0.518447 -16.56591,-1.424015 -9.72516,-4.707873 -11.6860099,-17.300764 -3.9556,-25.403548 7.32366,-7.676447 35.97036,-8.5203716 56.58039,-1.666846 24.26177,8.067851 43.909505,27.65192 55.039735,54.861409 1.89162,4.624343 4.31391,9.574343 5.38287,11 l 1.94356,2.592103 36.3838,-0.231732 c 66.21285,-0.421715 172.16061,-2.30125 186.30396,-3.30507 23.14187,-1.642487 37.13731,-1.365541 44.32799,0.877176 12.32524,3.844145 22.26328,12.50159 26.41654,23.012539 1.80671,4.57239 2.21905,7.5502 2.16664,15.64709 -0.0614,9.48531 -0.58725,11.90437 -10.21697,47 -12.20762,44.49082 -13.94694,48.58188 -25.51087,60.00433 -8.18999,8.08979 -15.12961,12.51554 -26.32818,16.79083 l -5.7753,2.20484 -110.25,0.27534 -110.25,0.27534 -0.0679,3.22466 c -0.0373,1.77356 -0.61034,10.75289 -1.27335,19.95406 l -1.20547,16.72939 113.02335,0.27061 c 111.9997,0.26815 113.059,0.2893 116.95882,2.33514 9.65895,5.0671 10.45292,19.96498 1.4227,26.69542 -1.45301,1.08297 -4.60301,2.34791 -7,2.81098 -5.9907,1.15735 -241.31935,0.97165 -246.29387,-0.19435 z M 266.8171,238.47894 c 3.07735,-3.29942 4.79642,-6.46926 4.84524,-8.93426 0.0198,-0.99866 1.12146,-3.14388 2.44817,-4.76716 l 2.41221,-2.95142 1.05474,2.77418 c 1.5097,3.97081 4.30663,3.08584 5.50188,-1.74084 0.7116,-2.87355 0.57441,-4.90099 -0.54161,-8.00452 -1.08194,-3.00873 -1.25347,-5.25646 -0.62128,-8.14112 2.06051,-9.40206 -0.92209,-23.79711 -6.75782,-32.61549 -1.40835,-2.12816 -2.21674,-3.86515 -1.79644,-3.85999 2.16135,0.0265 11.32385,6.33168 15.00593,10.32627 4.19317,4.54904 4.19818,4.56389 2.72957,8.07877 -1.76064,4.21382 -1.85288,7.19257 -0.35569,11.48741 1.58622,4.55023 4.11513,3.69506 5.4531,-1.844 l 1.06873,-4.42438 1.3777,4.92067 c 1.86572,6.66369 1.59981,17.63017 -0.53665,22.13244 -2.85529,6.01708 -0.62927,15.34331 2.95266,12.37058 2.16797,-1.79926 3.01176,-7.63545 1.72491,-11.93058 -0.60649,-2.02428 -0.82851,-5.37022 -0.49337,-7.43543 0.56028,-3.4526 0.74562,-3.63158 2.30206,-2.22302 2.43014,2.19924 5.03524,1.93644 5.03524,-0.50795 0,-3.27919 -3.60009,-9.40817 -6.40937,-10.91166 -1.42485,-0.76255 -2.59063,-2.01375 -2.59063,-2.78043 0,-3.07766 -5.79885,-12.99751 -10.6948,-18.29514 -2.85714,-3.09154 -7.80714,-7.03819 -11,-8.77031 l -5.8052,-3.14932 4.5,-0.13261 c 7.30825,-0.21537 10.20494,0.12085 15.75,1.82813 4.83935,1.48999 5.25029,1.85635 5.25374,4.6838 0.006,4.93654 5.28095,12.56738 8.68739,12.56738 1.80844,0 1.64677,-4.42843 -0.303,-8.29966 -1.55419,-3.0858 -1.44894,-3.04286 2.94055,1.19952 5.21564,5.04086 10.67132,14.57677 10.67132,18.65226 0,3.24206 4.24514,10.94424 6.51135,11.81386 3.9409,1.51227 2.84797,-7.85282 -1.4138,-12.11459 -2.57101,-2.571 -6.09755,-8.22799 -6.09755,-9.78119 0,-0.34601 1.35037,-0.33252 3.00083,0.03 2.32901,0.51154 3.15143,0.26662 3.67354,-1.09398 0.91217,-2.37709 -4.94056,-7.21151 -9.6281,-7.9529 -4.02624,-0.63679 -4.01379,-0.63016 -10.64976,-5.67788 -6.8484,-5.20931 -16.045,-8.15569 -25.66332,-8.22193 -6.68777,-0.0461 -7.52134,-0.23823 -6,-1.38326 3.50721,-2.63966 10.87239,-5.92125 16.0007,-7.12918 l 5.23388,-1.2328 2.63523,3.13179 c 3.07699,3.6568 7.31257,6.05996 10.68067,6.05996 4.83215,0 4.3454,-2.78397 -1.15968,-6.6329 l -3.62399,-2.53374 3.5,0.64321 c 6.54465,1.20273 17.67571,7.32617 21.04089,11.57505 4.50991,5.69423 11.64282,8.8872 13.42211,6.00825 1.12411,-1.81885 -5.45744,-7.96851 -9.28939,-8.6798 -2.02049,-0.37504 -5.16335,-1.81318 -6.98415,-3.19585 l -3.31054,-2.51395 3.06054,-1.28686 c 6.08976,-2.56056 1.9042,-5.89167 -6.29123,-5.00693 -2.83153,0.30568 -10.99823,0.69785 -18.14823,0.87148 -11.62032,0.28219 -13.61538,0.60061 -18.79842,3.00026 -3.18914,1.4765 -7.12338,3.628 -8.74277,4.78111 -2.65183,1.88827 -2.87922,1.91645 -2.28875,0.28362 2.65552,-7.34339 13.25248,-18.97504 16.18895,-17.76966 5.05388,2.07457 8.35343,2.47659 12.08326,1.47226 6.99768,-1.88429 6.54077,-4.51262 -1.01398,-5.83281 l -4.42829,-0.77386 3.49529,-1.23794 c 1.92241,-0.68086 6.64741,-1.49823 10.5,-1.81636 5.62969,-0.46489 8.17749,-0.16324 12.97917,1.53669 6.21718,2.20105 11.49185,2.05916 13.50224,-0.36322 2.41884,-2.91452 -7.02671,-5.74667 -12.65659,-3.79495 -1.55106,0.53771 -4.78259,0.70523 -7.18119,0.37227 l -4.36107,-0.60539 2.11107,-1.90499 c 2.87126,-2.59096 2.67998,-4.59501 -0.43858,-4.59501 -3.36387,0 -7.80358,2.36232 -10.22493,5.44057 -1.07315,1.36429 -4.31411,3.4119 -7.20212,4.55025 -10.32278,4.06886 -18.69011,11.59701 -23.62899,21.25918 -1.33539,2.6125 -2.70045,4.75 -3.03347,4.75 -1.24924,0 0.39938,-17.65494 2.01134,-21.53914 1.39857,-3.37004 2.18762,-4.0781 4.7633,-4.27436 5.40169,-0.41159 11.86453,-4.96589 11.86453,-8.36081 0,-2.23279 -1.90158,-2.31024 -6.78212,-0.27623 l -3.71788,1.54947 4.36212,-4.45156 c 5.43142,-5.54278 12.31701,-9.35405 19.28488,-10.67446 8.04681,-1.52487 14.48321,-8.97291 7.75414,-8.97291 -2.62745,0 -9.43163,3.52122 -11.08506,5.73661 -0.72384,0.96987 -2.97163,2.52838 -4.99509,3.46336 l -3.67901,1.69997 0.53922,-3.32284 c 0.31885,-1.96481 0.0751,-3.60966 -0.59632,-4.02464 -1.92519,-1.18983 -7.69859,5.54363 -8.51959,9.93631 -0.41003,2.19383 -2.28259,6.08271 -4.16126,8.64197 -6.25703,8.52378 -8.72293,15.35107 -9.34352,25.86926 l -0.56051,9.5 -2.68835,-4.5 c -3.27086,-5.47504 -4.70785,-9.15994 -5.76025,-14.77104 -0.75167,-4.00776 -0.61607,-4.40276 2.19983,-6.40785 1.65049,-1.17525 3.87972,-4.12358 4.95385,-6.55183 3.26691,-7.38538 0.23006,-9.94444 -4.7697,-4.01928 l -2.74241,3.25 0.73787,-4 c 1.10333,-5.98119 6.40073,-15.19999 10.99325,-19.13101 2.23542,-1.91344 4.61355,-4.46673 5.28472,-5.67399 1.68803,-3.036279 1.63345,-7.694999 -0.0902,-7.694999 -2.4597,0 -7.63758,6.26686 -8.23134,9.962509 -0.31259,1.94562 -1.60139,4.83064 -2.864,6.41115 l -2.29565,2.87366 -1.37731,-2.87366 c -1.64024,-3.42224 -2.91294,-3.49481 -4.58562,-0.26146 -1.63953,3.16928 -1.57727,7.76514 0.15005,11.07599 1.02052,1.95608 1.16151,3.7263 0.5177,6.5 -2.27229,9.78953 -0.12201,21.97768 5.56825,31.56181 1.87763,3.1625 3.19016,5.75 2.91673,5.75 -2.10007,0 -9.70599,-5.15809 -14.13126,-9.58335 -5.35649,-5.3565 -5.36222,-5.36898 -3.82537,-8.34093 1.76357,-3.41037 2.02758,-10.29458 0.50398,-13.14146 -1.79519,-3.35433 -3.8565,-2.25009 -5.11274,2.73889 l -1.17671,4.67315 -1.3225,-4.42315 c -1.77674,-5.94249 -1.70131,-16.84484 0.14718,-21.26891 2.47255,-5.91765 1.83356,-14.65424 -1.07181,-14.65424 -2.82601,0 -3.64597,3.97153 -2.91847,14.13585 l 0.70832,9.89627 -3.06564,-1.75944 c -2.09066,-1.19987 -3.39115,-1.43393 -4.08913,-0.73595 -1.73213,1.73213 0.71404,8.12508 4.27374,11.16917 1.98467,1.69721 4.40191,5.51761 6.15739,9.73163 3.42823,8.22945 12.27091,17.89189 19.92937,21.77693 l 4.92377,2.49776 -3.42377,0.63721 c -4.08243,0.75979 -13.18417,-0.59574 -18.27085,-2.72109 -2.9009,-1.21207 -3.65292,-2.07182 -3.65292,-4.17618 0,-5.36384 -4.96524,-12.45216 -8.72251,-12.45216 -1.70332,0 -1.61514,3.22198 0.21297,7.78212 l 1.49046,3.71788 -5.14832,-5.49143 c -5.60652,-5.98017 -9.80742,-13.8452 -9.82283,-18.39054 -0.0112,-3.29203 -3.32941,-9.18355 -5.96766,-10.5955 -5.17759,-2.77096 -3.58614,7.46019 1.93806,12.45953 1.82694,1.65335 5.01983,7.5359 5.01983,9.24847 0,0.26746 -1.01624,0.23123 -2.25831,-0.0805 -1.24207,-0.31174 -2.89398,-0.17393 -3.67093,0.30625 -3.28056,2.0275 5.2133,9.04373 10.94835,9.04373 1.21927,0 3.82995,1.41631 5.80151,3.14736 7.54976,6.62878 22.62804,11.61791 31.95199,10.57234 3.26223,-0.36582 4.03566,-0.1936 3.27059,0.72824 -1.6195,1.95138 -11.53188,6.46925 -16.9252,7.71418 -4.94708,1.14192 -5.00404,1.12676 -7.67016,-2.04174 -3.17366,-3.77168 -7.35585,-6.12039 -10.89818,-6.12039 -3.90607,0 -3.27941,3.41817 1.20034,6.54727 l 3.75,2.61937 -3.5,-0.64321 c -6.54465,-1.20273 -17.67571,-7.32617 -21.04089,-11.57505 -3.3917,-4.28238 -7.57752,-6.94838 -10.90945,-6.94838 -5.40801,0 0.68364,8.40811 6.98652,9.64327 1.9051,0.37334 4.95356,1.80552 6.77436,3.18263 l 3.31054,2.50383 -3.06054,1.28686 c -6.13616,2.58006 -1.88158,5.92497 6.29123,4.9461 2.83153,-0.33913 10.09823,-0.57348 16.14823,-0.52077 12.6456,0.11017 20.38107,-1.79529 27.90647,-6.87412 2.52644,-1.70507 4.58931,-2.77786 4.58415,-2.38397 -0.0261,1.99028 -6.34965,11.2415 -10.3166,15.09293 -4.29275,4.16774 -4.66239,4.32295 -7.74025,3.25 -7.28599,-2.53991 -18.46676,-0.32246 -15.17923,3.01046 0.68999,0.69952 3.38999,1.54215 6,1.87252 l 4.74546,0.60068 -4,1.28228 c -6.85252,2.19671 -18.47291,2.56329 -22.88025,0.72178 -6.13567,-2.56364 -14.61975,-2.00809 -14.61975,0.95733 0,2.80986 3.89715,3.59577 14.20629,2.86489 l 10.05792,-0.71307 -2.3581,3.18949 c -1.89328,2.5608 -2.09004,3.35517 -0.99818,4.02998 2.52254,1.55901 10.32014,-1.63222 12.09596,-4.95037 0.57735,-1.07879 4.75017,-3.73193 9.27292,-5.89586 9.45719,-4.52484 16.15819,-10.68243 21.41307,-19.67661 l 3.45893,-5.92026 -0.4447,9 c -0.24459,4.95 -1.13558,10.64077 -1.97999,12.64615 -1.31874,3.13187 -2.1242,3.74565 -5.71058,4.35156 -2.45921,0.41548 -5.58058,1.93927 -7.59442,3.70744 -5.6516,4.96218 -4.26771,7.76643 2.65559,5.38115 l 4.20756,-1.44962 -4.25326,4.33376 c -5.24307,5.3423 -12.46682,9.37442 -18.19739,10.15733 -7.13139,0.97429 -13.5514,6.05245 -10.94582,8.65803 1.57492,1.57492 8.84514,-0.91757 11.98641,-4.10937 1.44529,-1.46853 4.28093,-3.42161 6.30144,-4.34017 l 3.67365,-1.67011 -0.55449,3.41693 c -0.48226,2.97176 -0.28352,3.41692 1.52546,3.41692 2.75248,0 6.74974,-5.47321 7.64341,-10.46568 0.39696,-2.21762 2.05941,-5.50271 3.77146,-7.45263 5.74929,-6.54808 8.92886,-15.08748 9.63609,-25.8797 l 0.63578,-9.70199 2.99085,5 c 1.64498,2.75 3.72878,7.925 4.63069,11.5 l 1.63983,6.5 -3.81095,3.26609 c -5.51579,4.72718 -7.8037,13.23391 -3.55929,13.23391 0.8024,0 2.65928,-1.4625 4.12641,-3.25 l 2.6675,-3.25 -0.60216,3.5 c -1.05462,6.12983 -6.45691,15.80053 -10.75653,19.25535 -4.53189,3.64146 -6.83136,7.40975 -6.83136,11.19499 0,3.32435 1.97434,3.24815 5.19072,-0.20034 z"
       style="fill:#da76ab" />
  </g>
</svg>
