<?xml version="1.0" encoding="UTF-8" standalone="no"?>
<svg
   xmlns:dc="http://purl.org/dc/elements/1.1/"
   xmlns:cc="http://creativecommons.org/ns#"
   xmlns:rdf="http://www.w3.org/1999/02/22-rdf-syntax-ns#"
   xmlns:svg="http://www.w3.org/2000/svg"
   xmlns="http://www.w3.org/2000/svg"
   viewBox="0 0 415 399"
   height="399"
   width="415"
   id="svg52"
   version="1.1">
  <metadata
     id="metadata58">
    <rdf:RDF>
      <cc:Work
         rdf:about="">
        <dc:format>image/svg+xml</dc:format>
        <dc:type
           rdf:resource="http://purl.org/dc/dcmitype/StillImage" />
        <dc:title></dc:title>
      </cc:Work>
    </rdf:RDF>
  </metadata>
  <defs
     id="defs56" />
  <g
     id="g60">
    <path
       id="path64"
       d="m 84.507768,385.44929 c -0.6938,-0.27951 -1.71845,-1.36211 -2.277,-2.40577 -0.55855,-1.04367 -5.95016,-42.29195 -11.98136,-91.66285 -6.03119,-49.3709 -11.21221,-90.81605 -11.51339,-92.10032 -1.84769,-7.87906 3.29258,-9.32388 35.28321,-9.91733 l 25.250002,-0.46841 v 2.72988 c 0,5.25233 -25.025582,189.67018 -25.980432,191.45434 -1.45152,2.71219 -5.33236,3.75983 -8.78103,2.37046 z M 255.71036,374.69742 c -1.65274,-1.2073 -1.94113,-2.65585 -1.94113,-9.75 v -8.33203 l 46.72847,-0.25987 46.72847,-0.25988 0.65226,2.5988 c 1.02512,4.08442 -0.29961,13.42138 -2.20258,15.52414 -1.63495,1.80659 -3.76913,1.89681 -44.87048,1.89681 -35.67014,0 -43.49051,-0.2459 -45.09501,-1.41797 z m -27.94071,-32.58271 c 1.1718,-1.89602 113.003,-81.34271 115.08026,-81.75489 1.39536,-0.27687 6.00658,2.26804 14,7.72652 6.55563,4.47666 11.91932,8.54023 11.91932,9.03016 0,1.12437 -87.76939,63.77061 -91.14019,65.05219 -3.43697,1.30673 -50.66875,1.25559 -49.85939,-0.054 z m 73.49958,0.59893 c 0,-1.03925 78.93391,-56.59825 80.4104,-56.59825 2.49021,0 12.27427,6.54228 13.66205,9.13537 0.83855,1.56684 1.04322,6.09861 0.67996,15.05513 -0.45882,11.31264 -0.83865,13.46549 -3.24272,18.37922 -3.26907,6.68174 -9.76751,11.85743 -16.80891,13.38746 -4.46694,0.97062 -74.70078,1.57336 -74.70078,0.64107 z m -119.71396,-9.049 c -14.69689,-4.59313 -24.2911,-16.5027 -26.46902,-32.85674 -1.63243,-12.25804 -2.48772,-14.97364 -6.28044,-19.94081 -4.83263,-6.3291 -11.96472,-9.7517 -20.32082,-9.7517 h -6.39156 l 0.64143,-4.25 c 0.35278,-2.3375 0.89065,-5.54469 1.19527,-7.12709 l 0.55384,-2.8771 6.4783,0.66372 c 12.74935,1.30621 23.35405,7.43472 29.88143,17.26862 4.29866,6.47621 5.99102,11.70238 7.29268,22.52047 1.11972,9.30599 4.00472,14.96776 9.9249,19.47746 5.37938,4.09775 11.17607,5.70109 18.06114,4.99563 7.12945,-0.73051 9.13386,-2.64885 8.99948,-8.61313 -0.14676,-6.51406 2.25266,-10.47185 9.4585,-15.60159 71.28782,-50.74887 88.48085,-62.83058 89.98515,-63.23343 1.83011,-0.4901 26.82339,15.58144 26.41143,16.98346 -0.11426,0.38886 -26.48746,19.44143 -58.6071,42.33905 -54.92139,39.15264 -58.53956,41.55699 -60.75362,40.37206 -1.84951,-0.98982 -3.44183,-1.00892 -7.42693,-0.089 -6.58308,1.51955 -17.30042,1.38705 -22.63406,-0.27984 z m 23.71396,-63.91219 V 251.2532 l 30.00192,-21.31891 c 16.50106,-11.72539 30.66201,-21.46169 31.46877,-21.63621 1.30042,-0.28131 24.81796,14.8573 25.96584,16.71461 0.37362,0.60454 -23.93141,18.21245 -80.64104,58.42085 l -6.79549,4.81816 z m 102.5,-50.71554 c -47.85,-32.45945 -90.375,-61.37758 -94.5,-64.26251 l -7.5,-5.24533 -0.27355,-17.82287 c -0.23143,-15.07886 -0.0545,-17.7388 1.14925,-17.27688 2.10036,0.80598 184.73631,124.57807 187.3743,126.98326 2.16782,1.97651 2.25,2.68425 2.25,19.37712 0,9.52913 -0.3375,17.3119 -0.75,17.29504 -0.4125,-0.0169 -39.9,-26.58838 -87.75,-59.04783 z M 49.709808,264.98588 c -18.71949,-9.88896 -29.44058,-27.19799 -29.44058,-47.53137 0,-23.73713 13.1208,-42.49155 35.82129,-51.20172 6.59786,-2.5316 7.10846,-2.56913 42.17871,-3.10001 l 35.500002,-0.53739 5.70791,-2.80296 c 3.24795,-1.59495 7.02436,-4.4651 8.76249,-6.65967 5.13549,-6.48408 6.0296,-10.59093 6.0296,-27.69522 0,-16.57185 -0.65005,-19.57243 -5.66447,-26.146674 -2.42647,-3.18126 -2.55804,-3.89149 -1.94429,-10.495268 0.36207,-3.895703 0.846,-7.270791 1.07541,-7.500194 0.89215,-0.892158 10.67252,8.341756 13.49629,12.742233 4.5786,7.135133 6.15817,12.659543 6.73577,23.557753 1.45171,27.39096 -3.73,42.35291 -17.93249,51.77922 -9.47461,6.28838 -12.48631,6.72078 -46.81123,6.72078 -16.875102,0 -33.105932,0.45238 -36.068502,1.00528 -8.64056,1.61259 -17.03222,6.3047 -23.21038,12.97784 -7.6266,8.23765 -10.03299,14.67813 -10.11381,27.06874 -0.0591,9.05328 0.13004,9.94064 3.62251,17 2.39082,4.83261 5.59594,9.2867 9.12705,12.68371 5.21473,5.0167 5.48711,5.53786 6.51546,12.4664 0.59026,3.97696 0.95635,7.3477 0.81352,7.49052 -0.14282,0.14283 -2.03294,-0.67707 -4.20026,-1.822 z M 205.26923,200.73783 c 0,-19.04234 0.25497,-34.62244 0.56659,-34.62244 0.86245,0 49.61239,33.15722 49.24984,33.49722 -0.17404,0.16321 -10.89143,7.81926 -23.81643,17.01345 -12.925,9.19418 -24.0625,17.17064 -24.75,17.72546 -0.99535,0.80326 -1.25,-6.04439 -1.25,-33.61369 z m 181,19.21169 c -5.225,-3.55874 -46.625,-31.59075 -92,-62.29337 -45.375,-30.70262 -83.9625,-56.90736 -85.75,-58.232754 -3.21028,-2.38035 -3.25,-2.51083 -3.25,-10.677402 0,-8.679692 1.74531,-16.288645 4.78025,-20.840226 l 1.80674,-2.709616 26.95651,18.30359 c 14.82607,10.066975 55.97129,37.962528 91.43381,61.990098 35.46251,24.02758 64.83573,44.32699 65.27381,45.10979 0.43808,0.7828 0.67329,9.16261 0.52269,18.6218 l -0.27381,17.19851 z M 310.61861,116.34341 C 263.78577,84.592992 225.67483,58.277884 225.92763,57.865384 c 0.2528,-0.4125 11.82465,-0.75 25.71522,-0.75 h 25.25558 l 59.19328,40.107332 c 40.84355,27.674184 59.35686,40.771554 59.72092,42.250004 0.2902,1.17847 0.39915,9.44528 0.24212,18.37069 l -0.28552,16.22802 z M 52.868308,148.46262 c -1.22581,-7.73661 -5.59908,-44.76118 -5.59908,-47.40249 v -2.719874 l 14.21208,-0.73585 14.21207,-0.73586 1.53793,2.37291 c 3.56036,5.493394 7.6106,8.954804 11.13278,9.514264 3.06104,0.48621 4.14521,0.0878 7.30108,-2.68311 6.672962,-5.85893 9.573482,-14.397894 9.592192,-28.238771 0.0182,-13.48896 -4.40012,-24.811662 -11.017312,-28.233544 -4.87406,-2.520478 -7.64752,-1.867468 -12.88814,3.034521 l -4.83164,4.519431 -16.86407,0.908679 c -9.27525,0.499773 -17.03233,0.740429 -17.23797,0.53479 -0.20564,-0.205638 0.37004,-3.717694 1.27928,-7.80457 4.8145,-21.640219 23.70682,-36.628499 46.21639,-36.665893 25.788652,-0.04284 46.406852,20.84683 46.338112,46.94823 -0.0206,7.819811 -10.50594,86.974057 -11.67071,88.102547 -0.44664,0.43273 -14.98707,1.0133 -32.312072,1.29016 -17.325,0.27686 -33.14055,0.80449 -35.14567,1.17251 -3.60922,0.66245 -3.65178,0.63067 -4.25525,-3.17808 z m -40.06646,-29.31119 c -4.1152595,-4.54731 -3.8540195,-16.56539 0.54762,-25.193328 3.06283,-6.003642 11.50954,-14.035351 17.97384,-17.090758 8.09086,-3.82421 15.92662,-4.827739 39.44592,-5.051853 l 21,-0.200107 0.29138,6.5 0.29137,6.5 -16.29137,-0.323182 c -37.67212,-0.747325 -52.70282,6.919985 -52.76942,26.918198 -0.017,5.10001 -0.43651,6.97018 -1.8507,8.25 -2.46606,2.23176 -6.46888,2.08859 -8.63864,-0.30897 z m 335.094522,-29.786046 -46.78136,-31.75 35.777,-0.262848 c 39.59819,-0.290921 42.71055,0.07008 49.56366,5.748905 2.02754,1.680119 4.95254,5.633078 6.5,8.784353 2.78228,5.665891 2.81728,5.971398 3.14809,27.479592 0.18634,12.114744 -0.0554,21.750004 -0.54575,21.750004 -0.48416,0 -21.9319,-14.2875 -47.66164,-31.750006 z M 253.26923,36.33789 c 0,-5.420772 0.47171,-8.450953 1.5567,-10 l 1.55671,-2.222506 h 44.40811 c 41.27096,0 44.47409,0.123626 45.34212,1.75 1.34508,2.520174 2.47278,12.773466 1.73027,15.731871 l -0.63201,2.518129 h -46.98095 -46.98095 z"
       style="fill:#da76ab" />
  </g>
</svg>
