<?xml version="1.0" encoding="UTF-8" standalone="no"?>
<svg
   xmlns:dc="http://purl.org/dc/elements/1.1/"
   xmlns:cc="http://creativecommons.org/ns#"
   xmlns:rdf="http://www.w3.org/1999/02/22-rdf-syntax-ns#"
   xmlns:svg="http://www.w3.org/2000/svg"
   xmlns="http://www.w3.org/2000/svg"
   viewBox="0 0 496 482"
   height="482"
   width="496"
   id="svg66"
   version="1.1">
  <metadata
     id="metadata72">
    <rdf:RDF>
      <cc:Work
         rdf:about="">
        <dc:format>image/svg+xml</dc:format>
        <dc:type
           rdf:resource="http://purl.org/dc/dcmitype/StillImage" />
        <dc:title></dc:title>
      </cc:Work>
    </rdf:RDF>
  </metadata>
  <defs
     id="defs70" />
  <g
     id="g74">
    <path
       id="path78"
       d="m 218.27181,466.07401 c -4.16802,-4.16802 2.1306,-22.67942 10.90127,-32.03842 2.45859,-2.62351 6.66316,-6.0872 9.34349,-7.6971 5.73182,-3.44272 12.8156,-12.10842 19.87197,-24.30971 4.71982,-8.16112 11.97382,-24.10813 11.25139,-24.73477 -0.17568,-0.15239 -2.79442,0.0835 -5.81942,0.52424 -9.09232,1.32469 -29.87976,1.031 -40,-0.56513 -5.225,-0.82407 -11.6375,-1.78357 -14.25,-2.13222 l -4.75,-0.63391 v 5.09007 c 0,15.01331 -9.30177,32.73068 -20.06733,38.22286 -5.05666,2.57971 -6.54911,2.48067 -8.54613,-0.56717 -1.90863,-2.91293 -1.53322,-10.1788 0.88658,-17.15955 l 1.45324,-4.19237 -7.61318,3.79459 c -4.18725,2.08703 -9.77841,4.60782 -12.4248,5.60176 -3.53735,1.32858 -5.60841,2.96526 -7.82025,6.18005 -6.16539,8.96109 -19.36327,16.52635 -31.2727,17.92607 -6.67575,0.7846 -10.20422,-0.0182 -11.60797,-2.64116 -2.35271,-4.39608 5.20254,-13.50565 16.61826,-20.03706 5.66285,-3.23995 16.09558,-5.88639 23.39428,-5.93436 5.03548,-0.0331 15.70489,-4.32201 27.40526,-11.01645 8.70281,-4.97937 24.05645,-16.99037 22.90833,-17.92097 -0.44747,-0.36269 -2.61359,-1.25438 -4.81359,-1.98152 -11.98461,-3.96112 -32.00081,-15.51386 -45.10668,-26.0342 -2.80868,-2.25458 -5.73796,-3.85699 -6.50952,-3.56091 -0.77156,0.29607 -2.46706,2.54438 -3.76777,4.99625 -5.7899,10.91407 -20.5277,20.34259 -33.25991,21.27806 -6.302193,0.46303 -6.731623,0.35421 -8.350163,-2.11599 -1.62975,-2.4873 -1.60832,-2.8065 0.47763,-7.11551 1.20116,-2.48126 4.142243,-6.23516 6.535733,-8.342 l 4.3518,-3.83061 -12.685553,-1.27176 c -15.64731,-1.56868 -13.44205,-1.706 -21.48105,1.33763 -11.09497,4.20065 -26.58813,3.14264 -36.67999,-2.50484 -11.04115,-6.17871 -4.58529,-13.29791 14.01714,-15.4574 7.51858,-0.87281 16.05023,0.85899 24.51848,4.97688 5.05524,2.45824 9.59883,3.77174 16,4.62542 10.126113,1.35045 31.796303,0.75276 40.658703,-1.12143 l 5.71885,-1.20939 -5.33355,-6.11821 c -9.20974,-10.56464 -16.59705,-21.69522 -22.70382,-34.20819 -3.24518,-6.6495 -5.90032,-12.58544 -5.90032,-13.19099 0,-2.28014 -1.92604,-2.09716 -7.625793,0.72448 -8.08263,4.00128 -15.64824,5.22624 -24.9749,4.04373 -13.01646,-1.65032 -21.12615,-6.8921 -18.43695,-11.91691 1.44046,-2.69151 7.61174,-5.79102 14.79773,-7.43211 l 5.73991,-1.31084 -3.07827,-1.60056 c -1.69305,-0.88031 -6.74392,-4.31847 -11.22416,-7.64036 -7.16935,-5.31576 -8.95817,-6.1656 -14.92173,-7.0891 -12.3117,-1.90655 -26.14021,-10.79065 -31.7826,-20.41866 -3.1874001,-5.4389 -3.1582101,-8.09688 0.11245,-10.2399 7.85246,-5.14513 32.59741,8.3382 39.25612,21.39034 2.30651,4.52113 13.69885,13.69037 24.54743,19.75724 7.59522,4.24749 22.57625,10.86147 23.19663,10.24109 0.23844,-0.23843 -0.22884,-3.31215 -1.03839,-6.83049 -3.56552,-15.49592 -4.86643,-37.65242 -3.05975,-52.11253 l 0.6682,-5.34808 -6.58636,-1.12819 c -7.65801,-1.31177 -13.14339,-3.79283 -19.99988,-9.04605 -9.74094,-7.46319 -13.44019,-14.41163 -9.67635,-18.17546 2.64322,-2.64323 7.52083,-2.69964 15.79702,-0.1827 l 6.21036,1.88869 -3.30264,-6.64632 c -1.81645,-3.65548 -4.34649,-9.20989 -5.62232,-12.34312 -1.71836,-4.22003 -3.43412,-6.49712 -6.61876,-8.78416 -8.19528,-5.8854 -13.8881,-14.75361 -17.02024,-26.5139 -5.3311,-20.01679 6.84313,-22.47007 19.19098,-3.86726 5.30445,7.99149 7.29763,13.92137 8.28325,24.64343 0.74088,8.05957 1.49268,10.67057 5.52105,19.17453 5.29018,11.16769 15.52536,27.12885 16.59319,25.87612 0.39004,-0.45759 1.921133,-4.60352 3.402413,-9.21319 3.73651,-11.62781 10.41629,-25.16188 18.06431,-36.60055 l 6.47538,-9.68481 -4.20055,-5.16671 c -4.85404,-5.97051 -9.30293,-15.33323 -10.89691,-22.93259 -0.89349,-4.2597 -0.83309,-5.87333 0.30928,-8.263711 2.70226,-5.654385 8.07386,-4.14168 16.6996,4.702811 l 5.19504,5.32678 0.006,-5 c 0.003,-2.75 0.48807,-8.931171 1.07736,-13.735933 1.03077,-8.404291 0.96961,-8.990462 -1.61088,-15.440674 -3.16652,-7.91505 -3.53346,-18.967375 -0.95504,-28.76595 2.92777,-11.126163 7.52831,-16.072062 12.13943,-13.050736 3.41426,2.237107 5.41234,7.457328 6.26299,16.362742 0.99977,10.466706 -0.30122,18.195871 -4.4247,26.287032 -4.43892,8.710122 -6.14339,20.408268 -5.63693,38.687409 l 0.14797,5.34389 6.25,-5.12128 c 12.54392,-10.27855 26.9696,-19.173151 38.75,-23.892497 l 5.5,-2.203356 V 77.000892 c 0,-12.035669 1.88943,-19.373646 5.9773,-23.213996 4.76478,-4.476285 10.09015,-0.02497 12.53622,10.478672 0.64042,2.75 1.3446,5.586885 1.56485,6.304188 0.22025,0.717304 2.92716,-2.432696 6.01536,-7 3.0882,-4.567303 6.63599,-9.429188 7.88398,-10.804188 1.55758,-1.716106 2.43753,-4.224568 2.80634,-8 1.12547,-11.521204 8.4089,-23.969063 18.55084,-31.704574 4.72854,-3.6065791 10.01507,-4.3860681 12.16637,-1.793908 2.20477,2.656582 0.69788,11.703574 -3.28301,19.710427 -4.74581,9.54535 -8.32134,13.700323 -16.48927,19.161459 -3.70094,2.474474 -8.57647,6.890243 -10.83452,9.81282 -4.20857,5.447119 -13.543,19.998566 -13.10781,20.43376 0.13341,0.133408 4.51099,-0.39833 9.72796,-1.18164 14.34404,-2.153711 35.18137,-1.669929 47.75735,1.108784 1.57211,0.347365 2.47107,-0.04463 2.91836,-1.272565 2.07002,-5.682865 11.79862,-17.383671 16.51002,-19.856984 8.6223,-4.526392 12.186,2.18377 8.23163,15.499555 -0.86242,2.904074 -1.42492,5.421973 -1.25,5.59533 0.17492,0.173357 4.43512,-1.651059 9.46713,-4.054256 5.032,-2.403198 10.28634,-4.654882 11.67631,-5.003742 1.38997,-0.34886 3.75201,-2.401661 5.24897,-4.561779 7.63028,-11.010496 22.39014,-18.85646 35.52064,-18.881863 6.81613,-0.01319 9.42371,2.071185 8.2837,6.621582 -1.10254,4.400835 -10.3929,12.771131 -18.77049,16.911559 -6.27986,3.103675 -8.8901,3.789475 -16.77275,4.406784 -9.64325,0.755185 -18.51292,3.758318 -28.70752,9.719922 l -4.37207,2.556692 10.48777,5.257858 c 12.19625,6.11438 20.19113,11.328251 31.0747,20.265411 l 7.81836,6.42012 7.25033,-3.58246 c 12.62623,-6.23874 23.4983,-6.95877 24.88704,-1.64821 0.77624,2.96835 -2.09964,8.28679 -7.38331,13.65416 l -5.0148,5.09424 10.81202,0.81803 c 15.63339,1.18282 17.18048,1.08642 23.81201,-1.48376 10.98785,-4.25855 28.27277,-2.61182 37.80937,3.60208 3.27842,2.13617 3.76625,2.92766 3.5,5.67865 -0.26325,2.71995 -1.05482,3.56924 -5.30937,5.69652 -4.5,2.25 -6.2,2.5 -17,2.5 -11.80968,0 -12.12491,-0.0596 -19.8758,-3.76045 -4.78616,-2.28525 -10.47443,-4.12325 -14.5,-4.68526 -9.86704,-1.37754 -21.1242,-2.03449 -21.1242,-1.23276 0,0.38784 1.52321,2.96701 3.38492,5.73148 6.49122,9.63891 13.62931,24.98641 17.70861,38.07503 l 2.22158,7.12804 10.59244,0.45942 c 8.12846,0.35255 11.82297,0.9951 15.88236,2.76227 11.90742,5.18365 8.52352,13.24807 -6.87718,16.38953 l -6.39344,1.30415 4.49035,2.81657 c 2.4697,1.54911 7.64036,5.15978 11.49036,8.02372 6.01391,4.47362 7.84522,5.30177 13,5.87884 3.3,0.36943 8.709,1.9356 12.02,3.48038 9.91421,4.62559 22.48,17.72476 22.48,23.43421 0,2.31807 -3.47302,4.69483 -6.86029,4.69483 -1.76154,0 -5.79642,-0.87373 -8.96639,-1.94161 -11.499,-3.87374 -18.74188,-9.35736 -25.52928,-19.32837 -4.26605,-6.26702 -12.29267,-13.10189 -22.81959,-19.43148 -9.12729,-5.48802 -9.00439,-5.51525 -8.25509,1.82897 0.90253,8.846 -1.13297,29.41991 -4.09298,41.37016 -1.36201,5.49872 -2.47638,10.0578 -2.47638,10.13129 0,0.0735 1.98007,0.6322 4.40016,1.24158 5.95178,1.49868 18.7652,10.2298 22.53428,15.35495 3.63054,4.93677 4.13137,10.13374 1.1313,11.73933 -2.94325,1.57518 -9.1289,1.24183 -15.41051,-0.83049 -3.11038,-1.02612 -5.65523,-1.7541 -5.65523,-1.61773 0,0.13636 2.24353,4.91342 4.98562,10.61567 2.7421,5.70225 4.9921,10.87511 5,11.49525 0.008,0.62014 2.46738,3.14697 5.4655,5.61518 7.37086,6.0681 10.01389,9.38951 13.64295,17.14464 5.5665,11.89532 6.15897,24.15037 1.25848,26.03087 -4.72972,1.81496 -15.52434,-8.43236 -20.98204,-19.91821 -2.66804,-5.61494 -3.50208,-8.93919 -4.21518,-16.80055 -0.8444,-9.30873 -1.22054,-10.46295 -7.49519,-23 -3.6334,-7.2597 -7.67582,-14.51828 -8.98314,-16.13019 l -2.37697,-2.93074 -3.82418,6.93074 c -6.4581,11.70432 -15.15681,23.79576 -23.64793,32.87128 l -8.10782,8.66582 5.65778,5.0427 c 11.71871,10.44471 18.79048,33.01455 11.55731,36.88562 -2.86512,1.53337 -9.62549,-1.89016 -14.78453,-7.48705 l -4.01233,-4.35287 -0.62225,6.65262 c -0.34223,3.65894 -1.05362,9.69773 -1.58086,13.41954 -0.82976,5.85736 -0.70646,7.26869 0.91733,10.5 6.40803,12.75192 4.67119,34.90934 -3.36647,42.947 -2.96798,2.96798 -3.58549,3.19791 -5.83537,2.17279 -3.80252,-1.73254 -6.69038,-9.49435 -7.35621,-19.77157 -0.63626,-9.82086 0.88968,-16.75016 5.6553,-25.68073 3.66754,-6.87282 5.58144,-21.71165 4.69593,-36.40861 -0.3488,-5.78919 -0.91007,-11.52227 -1.24727,-12.74018 -0.60097,-2.17061 -0.72464,-2.13896 -6.25578,1.60133 -12.92608,8.74092 -28.09669,15.89974 -42.68391,20.14201 -4.37733,1.27302 -8.07908,2.39509 -8.22612,2.49349 -0.14704,0.0984 1.20296,3.28359 3,7.07822 3.11619,6.58016 3.26479,7.43133 3.21213,18.39933 -0.0627,13.05876 -1.99404,19.83792 -6.63755,23.29834 -2.58227,1.92435 -2.80153,1.93542 -5.34354,0.26983 -3.01725,-1.97697 -6.05684,-8.17161 -7.04651,-14.36065 -0.37004,-2.31414 -1.02084,-4.20752 -1.44622,-4.20752 -0.42538,0 -1.73923,1.63693 -2.91967,3.63762 -1.18044,2.00069 -4.59988,6.89774 -7.59877,10.88233 -4.24985,5.64673 -5.45253,8.03804 -5.45253,10.84138 0,10.22077 -9.51979,26.60682 -19.35919,33.32225 -5.40096,3.68618 -8.65558,4.15879 -11.18951,1.62486 z m 19.53766,-152.80273 c 7.31956,-3.78509 8.03964,-10.94839 2.01104,-20.00571 -2.1965,-3.3 -3.99507,-6.26527 -3.99682,-6.58948 -0.002,-0.32422 1.12182,-1.10207 2.49682,-1.72857 3.04873,-1.38909 3.09325,-2.48772 0.36667,-9.0486 -2.31161,-5.56236 -4.14193,-6.33195 -9.38156,-3.94461 -2.35821,1.07447 -2.82939,0.91233 -4.90193,-1.68688 l -2.29293,-2.87561 -7.89513,2.86127 c -4.34231,1.5737 -9.37411,3.47072 -11.18176,4.2156 l -3.28664,1.35434 12.21797,18.03434 c 6.76421,9.98431 13.36456,18.65788 14.78664,19.43123 3.37662,1.83627 7.48563,1.82983 11.05763,-0.0173 z m -30.00482,-48.03421 c 7.93175,-3.04068 15.23013,-6.26042 16.21862,-7.15499 0.98848,-0.89457 1.79724,-2.95248 1.79724,-4.57314 0,-3.95847 -16.62976,-47.91101 -18.72617,-49.49337 -0.91085,-0.6875 -2.89312,-1.25 -4.40504,-1.25 -3.5342,0 -30.48586,10.34348 -33.08818,12.69855 -1.96728,1.78036 -2.04376,4.94244 -0.26296,10.87226 0.52312,1.7419 -0.006,2.25883 -3.32925,3.2546 -6.02561,1.80531 -6.79617,3.27863 -4.67343,8.93566 10.54119,28.09203 9.44161,26.57681 17.27971,23.81137 l 4.04613,-1.42756 1.54354,3.8577 c 1.63694,4.0911 3.82424,5.91727 7.14703,5.96701 1.11726,0.0167 8.521,-2.45742 16.45276,-5.49809 z m 60.51586,-18.99501 33,-3.51534 2.5,3.02844 c 2.81632,3.41161 6.32605,3.93031 9.17127,1.35542 1.00581,-0.91024 1.82874,-2.48251 1.82874,-3.49393 0,-3.243 -32.9675,-89.3031 -34.70703,-90.60108 -2.44715,-1.82597 -5.0097,-1.53328 -7.38669,0.84371 -1.62603,1.62603 -1.95488,2.83373 -1.47221,5.40661 l 0.62151,3.3129 -28.00828,19.84339 c -15.40454,10.91386 -28.01705,20.34008 -28.02779,20.94714 -0.0107,0.60706 2.69829,8.25706 6.02005,17 3.32176,8.74294 7.1861,18.93375 8.58742,22.64625 1.40132,3.7125 3.07102,6.74816 3.71043,6.74591 0.63942,-0.002 16.01258,-1.58598 34.16258,-3.51942 z m 48.15667,-36.02818 c 4.71003,-3.59252 6.66542,-7.91004 6.67151,-14.73074 0.004,-4.78275 -0.49907,-6.49616 -2.9115,-9.91094 -3.73832,-5.29155 -9.03411,-8.0374 -15.50138,-8.0374 -2.75983,0 -5.29715,0.27929 -5.63851,0.62064 -0.85717,0.85718 11.90081,34.61013 13.08198,34.61013 0.52385,0 2.45791,-1.14826 4.2979,-2.55169 z"
       style="fill:#da74ab" />
  </g>
</svg>
