<?xml version="1.0" encoding="UTF-8" standalone="no"?>
<svg
   xmlns:dc="http://purl.org/dc/elements/1.1/"
   xmlns:cc="http://creativecommons.org/ns#"
   xmlns:rdf="http://www.w3.org/1999/02/22-rdf-syntax-ns#"
   xmlns:svg="http://www.w3.org/2000/svg"
   xmlns="http://www.w3.org/2000/svg"
   viewBox="0 0 444 407"
   height="407"
   width="444"
   id="svg80"
   version="1.1">
  <metadata
     id="metadata86">
    <rdf:RDF>
      <cc:Work
         rdf:about="">
        <dc:format>image/svg+xml</dc:format>
        <dc:type
           rdf:resource="http://purl.org/dc/dcmitype/StillImage" />
        <dc:title></dc:title>
      </cc:Work>
    </rdf:RDF>
  </metadata>
  <defs
     id="defs84" />
  <g
     id="g88">
    <path
       id="path92"
       d="m 138.07245,387.90647 c -13.4706,-1.9772 -35.01478,-8.93803 -43.454224,-14.03986 -3.97496,-2.40295 -5.99944,-2.37138 -11.27141,0.17576 -7.9395,3.83594 -18.68291,5.93932 -30.33626,5.93932 -10.94932,0 -14.77429,-0.89174 -14.77429,-3.44442 0,-0.75573 2.76382,-4.00239 6.14182,-7.21482 6.157,-5.85518 13.45662,-15.89265 14.45732,-19.87977 0.38838,-1.54743 -1.19316,-4.42599 -5.79349,-10.54473 -14.4832,-19.2636 -20.78039,-37.87912 -20.7981,-61.4826 -0.0204,-27.13359 10.63856,-51.84154 31.30771,-72.57296 9.14717,-9.17472 22.22965,-18.77702 23.555,-17.28892 0.45468,0.51052 2.76883,5.87822 5.14254,11.92822 14.352394,36.58067 32.863674,59.83155 64.446854,80.94774 30.96736,20.70446 69.00803,31.55226 110.6463,31.55226 6.54173,0 11.89405,0.23623 11.89405,0.52496 0,0.28873 -1.63726,3.77623 -3.63836,7.75 -18.17439,36.09065 -50.93014,59.38553 -93.81261,66.71666 -12.38402,2.11715 -32.69269,2.55069 -43.71285,0.93316 z m 102.03464,-102.9998 c -23.12318,-2.45195 -48.45968,-12.10477 -70.91802,-27.01866 -11.49068,-7.63061 -31.54464,-27.32044 -38.13075,-37.4384 -14.18301,-21.78872 -20.82205,-43.7789 -20.82205,-68.96792 0,-32.36767 11.37283,-59.640688 35.60396,-85.381297 29.07632,-30.88763 69.42563,-47.168945 117.39604,-47.370375 16.28637,-0.06839 24.33473,0.897283 40.02725,4.802606 42.75466,10.64015 79.93208,38.616643 97.39222,73.288925 16.12472,32.020411 17.81868,70.336901 4.42806,100.160141 -5.44133,12.11877 -9.52175,19.1032 -16.90247,28.93185 -3.81978,5.08667 -6.94506,10.23065 -6.94506,11.43107 0,4.12893 7.47182,15.1039 16.25,23.86881 4.8125,4.80522 8.74311,9.08135 8.73469,9.50252 -0.065,3.24977 -2.07334,3.7696 -15.79688,4.08873 -15.83073,0.36813 -26.03546,-1.46688 -37.78539,-6.79455 -3.67348,-1.66564 -7.22888,-3.02843 -7.90089,-3.02843 -0.67201,0 -5.22227,1.84921 -10.11168,4.10936 -20.42477,9.44141 -39.91131,14.06177 -66.88985,15.85993 -16.58451,1.10538 -16.79014,1.10505 -27.62918,-0.0443 z m 13.08837,-42.5441 c 3.54594,-2.9837 6.04081,-7.28626 6.04081,-10.41774 0,-1.1749 1.43828,-4.13895 3.19617,-6.58677 l 3.19616,-4.45058 1.43032,3.58607 c 0.93274,2.33854 1.98637,3.47898 3.02872,3.27825 3.88963,-0.74908 5.45354,-10.36601 2.58712,-15.90905 -1.34041,-2.59207 -1.39293,-4.06459 -0.37093,-10.3999 2.04902,-12.70184 -1.31151,-27.69871 -8.6506,-38.60455 -3.8475,-5.71737 -3.24883,-5.78132 5.4117,-0.57807 2.93076,1.7608 7.78695,5.77515 10.79154,8.92078 l 5.46289,5.71932 -1.71176,3.28068 c -3.05548,5.85599 -1.54767,18.78068 2.19097,18.78068 1.78808,0 2.50075,-1.35048 3.8906,-7.37256 l 1.18337,-5.12744 1.68187,7.19741 c 2.28738,9.78868 2.17174,18.9857 -0.31814,25.30259 -3.14374,7.97574 -2.15862,17.56236 1.7278,16.81391 3.74498,-0.72122 5.59322,-10.20916 3.20986,-16.47786 -0.6047,-1.59051 -0.77515,-4.88222 -0.39566,-7.6414 l 0.66666,-4.84725 2.30646,2.16681 c 3.08806,2.90108 6.04312,2.25966 5.80263,-1.2595 -0.29603,-4.33178 -3.40212,-9.79163 -6.8599,-12.05826 -2.3215,-1.52178 -3.67789,-3.5532 -4.8453,-7.25663 -3.65352,-11.59031 -15.02864,-24.49341 -26.76166,-30.35647 l -6.17033,-3.08335 4.40972,-0.19279 c 8.44008,-0.369 14.44867,0.30726 20.65972,2.32523 5.79571,1.88302 6.25,2.24509 6.25,4.98121 0,6.04084 6.27201,15.88635 10.12028,15.88635 2.9334,0 3.19061,-2.15012 0.96953,-8.10457 l -2.01256,-5.39543 6.07217,6.39449 c 6.36617,6.70409 11.84843,16.599 11.84979,21.38763 10e-4,4.00785 2.29389,8.78496 5.79637,12.07712 3.49423,3.2844 5.20442,2.80781 5.20442,-1.45038 0,-4.09793 -2.21936,-8.92966 -5.47011,-11.90886 -1.50032,-1.375 -3.78665,-4.57978 -5.08072,-7.12174 l -2.35287,-4.62173 4.45185,0.50179 c 3.91379,0.44114 4.45185,0.26696 4.45185,-1.44118 0,-2.01668 -4.02194,-6.34072 -7.5,-8.06333 -1.1,-0.54481 -3.75946,-1.30868 -5.90991,-1.6975 -2.30795,-0.41729 -5.79055,-2.27162 -8.5,-4.52589 -9.63918,-8.0198 -21.25335,-12.01466 -35.05019,-12.05602 l -8.5399,-0.0256 5.5,-3.50801 c 5.63317,-3.59294 16.3046,-7.4408 20.63589,-7.4408 1.53949,0 3.59786,1.33557 5.63608,3.65698 4.83989,5.51233 14.44182,9.23317 16.25521,6.29904 0.94032,-1.52146 -2.14254,-5.75071 -5.83151,-8.00002 -4.14426,-2.52692 -1.71954,-2.51604 6.52112,0.0292 7.79875,2.40879 17.56138,8.62885 20.28321,12.92304 2.21084,3.48799 11.56945,8.66278 13.98813,7.73465 4.47757,-1.71821 -2.26739,-9.60899 -10.23661,-11.9756 -4.7484,-1.41008 -11.25152,-5.24562 -11.25152,-6.63611 0,-0.32599 1.35,-1.10227 3,-1.72508 3.46735,-1.30878 3.90643,-3.75062 0.95814,-5.3285 -2.94368,-1.57541 -11.25236,-1.41127 -14.4923,0.2863 -2.11222,1.10671 -3.75332,1.22705 -6.87046,0.50378 -2.25246,-0.52263 -8.59538,-0.74286 -14.09538,-0.4894 -11.24033,0.518 -18.31689,2.71489 -26.51414,8.23123 -5.64488,3.79873 -6.1548,2.98504 -2.21881,-3.54051 4.16095,-6.89851 7.16777,-10.58189 11.44249,-14.01715 3.87825,-3.11664 3.90717,-3.12231 7.86175,-1.54 7.09106,2.83728 16.94823,1.44088 17.70884,-2.50869 0.37797,-1.96264 -3.7455,-3.87829 -8.57718,-3.98473 l -3.70295,-0.0816 3.2545,-1.42313 c 8.17405,-3.57435 22.53472,-3.55358 32.17627,0.0466 7.04762,2.63156 17.29139,-0.0778 14.23196,-3.76421 -2.20873,-2.66134 -10.21985,-4.00799 -14.73364,-2.47668 -2.161,0.73313 -6.29486,1.16503 -9.18636,0.95978 l -5.25727,-0.37318 2.54864,-3.02888 c 3.00459,-3.57076 2.78095,-5.16174 -0.78523,-5.5862 -3.55901,-0.4236 -9.88452,2.99104 -12.95473,6.99324 -1.68642,2.19836 -4.35521,3.9493 -7.91891,5.19545 -11.7926,4.1236 -24.19721,15.27693 -29.66784,26.67517 l -2.91446,6.07238 -0.57265,-5.54845 c -0.66641,-6.45687 0.44198,-15.08584 2.80388,-21.8287 1.47516,-4.21135 1.99703,-4.75 4.60196,-4.75 6.25984,-2e-5 15.87388,-6.16985 15.87388,-10.18711 0,-2.31366 -5.20918,-2.47376 -9.39878,-0.28886 -1.59433,0.83144 -3.07061,1.3399 -3.28061,1.12989 -0.21001,-0.21001 2.30525,-2.86959 5.58946,-5.9102 6.92154,-6.408121 16.87688,-11.743745 21.91179,-11.743745 6.07024,0 15.55845,-6.9576 13.66537,-10.020667 -1.70206,-2.753984 -12.59505,0.799694 -16.09669,5.251307 -1.07375,1.365046 -4.02675,3.399544 -6.56223,4.521107 l -4.60996,2.039205 0.52005,-3.877272 c 0.67426,-5.026926 -1.68242,-6.248176 -5.3843,-2.790194 -3.1851,2.975258 -4.88887,6.284477 -5.7871,11.240248 -0.4003,2.20858 -2.41949,6.038681 -4.71349,8.940811 -8.17835,10.34639 -11.83286,21.05897 -11.88531,34.8398 -0.0297,7.80871 -0.13576,8.22474 -1.61985,6.35566 -3.23188,-4.07026 -8.3228,-16.4388 -8.90573,-21.63674 -0.58022,-5.17382 -0.49192,-5.4339 2.49987,-7.36326 3.3239,-2.14352 8.05751,-10.4489 8.05751,-14.13733 0,-4.908691 -4.35354,-3.67955 -8.48092,2.39444 -3.27504,4.81965 -3.33706,2.17937 -0.16019,-6.819401 2.98269,-8.448717 8.18442,-16.364202 12.73482,-19.378598 5.2785,-3.496718 9.77836,-13.903507 6.54785,-15.143167 -3.52944,-1.354372 -11.64156,8.337362 -11.64156,13.908434 0,0.931114 -1.32828,3.526571 -2.95173,5.767681 l -2.95173,4.074746 -1.49724,-3.583405 c -1.65003,-3.949069 -3.96589,-4.635465 -5.56412,-1.649146 -1.51669,2.833966 -1.26228,11.725905 0.42908,14.996625 1.09858,2.124421 1.22345,3.671221 0.5,6.193741 -1.44608,5.04218 -1.16135,18.69851 0.52483,25.17219 1.44478,5.54689 5.81233,14.84592 9.14646,19.47388 1.54845,2.14934 1.5351,2.23256 -0.24984,1.55705 -6.18795,-2.34181 -15.76854,-9.51873 -19.85009,-14.86992 -2.47855,-3.24956 -2.53148,-3.56514 -1.07149,-6.38846 2.30224,-4.45204 2.03824,-14.25461 -0.46346,-17.20858 -1.93885,-2.28936 -2.04349,-2.30375 -3.45898,-0.47575 -0.8028,1.03676 -1.77084,3.96025 -2.1512,6.49664 l -0.69155,4.61162 -1.45227,-3.99664 c -0.79875,-2.19816 -1.68734,-8.30442 -1.97464,-13.56948 -0.45298,-8.301341 -0.24009,-10.210951 1.6028,-14.377122 3.23976,-7.323995 2.42336,-17.550053 -1.40111,-17.550053 -3.46194,0 -5.66167,10.745253 -3.41138,16.663954 0.6047,1.590506 0.77515,4.88222 0.39566,7.6414 l -0.66666,4.847251 -2.21012,-2.0763 c -2.35472,-2.212141 -5.07462,-2.705011 -6.06696,-1.099381 -1.38715,2.244471 1.79375,9.618511 5.79083,13.424421 2.59465,2.47055 5.27051,6.60013 7.29633,11.2602 5.53287,12.72754 12.68915,20.50549 24.8394,26.99727 5.80133,3.0996 5.89888,3.21783 3.2116,3.89229 -3.90308,0.97961 -15.67526,-0.34075 -21.89861,-2.45613 -5.14247,-1.74798 -5.27251,-1.88982 -6.40413,-6.9857 -1.90004,-8.55624 -8.58475,-16.2742 -11.53779,-13.32116 -1.26177,1.26177 0.38378,8.46565 2.54138,11.12561 0.96643,1.19143 0.80679,1.23261 -1.01529,0.2619 -5.95499,-3.17252 -16.31581,-19.37584 -16.35994,-25.58534 -0.0308,-4.32788 -3.20012,-10.83321 -6.56888,-13.48308 -2.56024,-2.01388 -2.95815,-2.0769 -4.0122,-0.63539 -2.13094,2.91423 2.25264,14.41228 6.05019,15.86954 1.07379,0.41205 5.55285,8.63204 5.55285,10.19061 0,0.15275 -1.8,0.0363 -4,-0.25879 -3.63146,-0.48708 -4,-0.331 -4,1.69395 0,4.17229 8.64073,10.00184 14.86276,10.0273 0.74952,0.003 4.12452,2.09525 7.5,4.64928 10.86403,8.2202 20.20513,11.32605 34.11937,11.34443 l 8.98214,0.0119 -3.81212,2.5904 c -5.52716,3.7558 -13.60827,7.1287 -19.77668,8.25439 -4.62708,0.84441 -5.50286,0.74947 -6.29047,-0.6819 -3.23852,-5.8856 -15.06908,-12.07881 -17.81951,-9.32838 -1.55467,1.55467 0.43068,5.03472 4.51574,7.91549 4.12376,2.90806 1.80706,2.96885 -6.56278,0.1722 -8.08435,-2.70125 -14.70592,-6.98056 -19.10133,-12.34457 -3.80042,-4.63794 -8.85081,-7.57766 -13.01825,-7.57766 -1.87869,0 -2.59887,0.52198 -2.59887,1.88364 0,2.80626 7.28383,8.89138 11.61565,9.70403 2.05424,0.38538 5.70849,2.09175 8.12057,3.79194 l 4.38559,3.09125 -2.93514,0.76058 c -1.61433,0.41831 -3.53725,1.48606 -4.27316,2.37278 -1.13681,1.36976 -1.06022,1.81533 0.50926,2.96297 3.19237,2.33432 9.71816,2.76035 14.28603,0.93265 3.45435,-1.38216 5.46358,-1.50339 11.97113,-0.72228 13.88375,1.66647 26.8257,-1.21537 37.39261,-8.32637 4.62574,-3.1129 4.98639,-3.21021 4.34682,-1.17286 -1.34612,4.28802 -7.72817,13.2672 -12.68948,17.85336 l -5.01056,4.63169 -4.50966,-1.99483 c -5.24889,-2.32184 -11.65153,-2.0195 -15.87799,0.74979 l -2.69719,1.76726 2.29354,1.8572 c 1.48468,1.20222 3.90028,1.8572 6.84943,1.8572 9.53027,0 -1.19885,3.73864 -13.27745,4.62662 -6.28016,0.4617 -8.96741,0.21306 -12.5,-1.15658 -8.58573,-3.32881 -20,-2.80233 -20,0.9225 0,2.05335 8.20178,4.94995 12.19695,4.30755 1.81668,-0.2921 5.18837,-0.84973 7.49265,-1.23916 2.30428,-0.38944 5.36342,-0.41345 6.7981,-0.0534 l 2.6085,0.65469 -2.0481,2.60373 c -2.93451,3.73065 -2.61865,5.33405 1.05077,5.33405 4.36736,0 9.58905,-2.72428 12.4757,-6.50888 1.57771,-2.06848 4.51996,-4.01421 8.19355,-5.41845 3.15254,-1.20507 7.85008,-3.54893 10.439,-5.20858 6.52943,-4.18576 15.81847,-14.39203 18.78449,-20.63934 1.3643,-2.87361 2.89043,-5.22475 3.39139,-5.22475 1.46519,0 -0.0887,17.94154 -2.07769,23.98934 -1.79072,5.44497 -1.84369,5.49482 -6.55249,6.1667 -2.61095,0.37255 -6.27689,1.62277 -8.14653,2.77827 -3.79956,2.34825 -7.00577,6.6103 -6.08883,8.09394 0.87728,1.41947 5.02962,1.18783 9.08553,-0.50684 l 3.53876,-1.47858 -2.6576,3.22858 c -5.92324,7.19585 -16.39374,13.33047 -25.19803,14.7634 -8.04444,1.30927 -15.33161,7.3197 -12.41306,10.23825 1.86954,1.86954 10.10121,-0.88213 14.12694,-4.72232 1.925,-1.83628 5.46978,-4.32477 7.87729,-5.52998 l 4.37728,-2.19128 -0.61076,3.33526 c -0.33591,1.83439 -0.19746,3.98946 0.30768,4.78905 2.31931,3.67122 9.82808,-4.78613 10.78065,-12.14255 0.37866,-2.92432 1.60043,-5.47753 3.79787,-7.93663 8.25105,-9.23355 12.64728,-21.13385 12.81771,-34.69668 0.11655,-9.27449 0.12671,-9.31026 1.98972,-7.00954 3.1807,3.928 6.5077,11.30408 8.27853,18.35378 l 1.6934,6.74147 -4.28591,3.56012 c -4.60726,3.82704 -7.02346,8.32857 -7.02346,13.0851 0,4.72821 1.81798,4.63891 6.57215,-0.32281 2.43532,-2.54164 4.42251,-4.50077 4.41598,-4.35361 -0.007,0.14716 -0.61179,2.51756 -1.34503,5.26756 -2.45042,9.19024 -6.84437,16.67071 -13.80457,23.50157 -4.96921,4.87687 -6.83615,7.46884 -7.34912,10.20317 -1.17235,6.24917 0.59682,7.27647 5.46978,3.17614 z"
       style="fill:#da76ab" />
  </g>
</svg>
