<?xml version="1.0" encoding="UTF-8" standalone="no"?>
<svg
   xmlns:dc="http://purl.org/dc/elements/1.1/"
   xmlns:cc="http://creativecommons.org/ns#"
   xmlns:rdf="http://www.w3.org/1999/02/22-rdf-syntax-ns#"
   xmlns:svg="http://www.w3.org/2000/svg"
   xmlns="http://www.w3.org/2000/svg"
   viewBox="0 0 426 435"
   height="435"
   width="426"
   id="svg94"
   version="1.1">
  <metadata
     id="metadata100">
    <rdf:RDF>
      <cc:Work
         rdf:about="">
        <dc:format>image/svg+xml</dc:format>
        <dc:type
           rdf:resource="http://purl.org/dc/dcmitype/StillImage" />
        <dc:title></dc:title>
      </cc:Work>
    </rdf:RDF>
  </metadata>
  <defs
     id="defs98" />
  <g
     id="g102">
    <path
       id="path106"
       d="m 69.873623,415.8278 c -9.11708,-1.05644 -12.95477,-2.71593 -17.37807,-7.51465 -7.572,-8.21465 -7.12216,-2.28274 -7.11993,-93.88857 l 0.002,-82.12788 14.248,-0.057 c 14.129525,-0.0565 14.349235,-0.0924 26.421605,-4.31518 11.62359,-4.06582 12.30837,-4.18852 15.156302,-2.7158 1.64048,0.84833 6.96236,2.76078 11.8264,4.2499 7.84703,2.40235 10.47782,2.71098 23.3437,2.73851 15.37564,0.0329 18.17024,-0.45612 31.65536,-5.53929 l 8.15535,-3.07414 6.51756,2.60743 c 12.4909,4.99715 18.27887,6.07302 32.67173,6.07302 14.38955,0 20.18154,-1.07615 32.65957,-6.06815 l 6.50538,-2.60256 8.16753,3.03782 c 13.65618,5.07926 16.42472,5.57672 31.16752,5.60017 14.87809,0.0237 20.4963,-1.00706 33.32447,-6.11386 l 6.32446,-2.51773 5.93246,2.57284 c 10.8398,4.70109 17.50571,5.98123 32.41861,6.22577 l 14,0.22956 -0.10672,80.53677 c -0.0821,61.98806 -0.40061,81.58644 -1.38278,85.09438 -1.62321,5.79756 -7.60748,12.6214 -13.74011,15.66781 l -4.7704,2.36973 h -94.5 -94.5 l -0.25724,-65.25 -0.25724,-65.25 H 136.86638 97.373618 v 65.5 65.5 l -10.75,-0.13682 c -5.9125,-0.0753 -13.45,-0.44969 -16.749995,-0.83208 z M 333.37362,324.7967 v -39 h -52.5 -52.5 v 39 39 h 52.5 52.5 z M 46.505363,205.71909 c -13.74711,-2.70166 -21.95955,-12.17524 -25.64886,-29.5876 -1.66306,-7.84912 -1.95029,-23.15036 -0.49815,-26.53774 0.5416,-1.26338 9.31688,-25.60007 19.50063,-54.08153 10.18374,-28.481459 19.61569,-53.954809 20.95988,-56.60744 3.51421,-6.934968 6.94201,-10.627488 12.328095,-13.280168 l 4.72666,-2.327909 h 137.000002 137 l 5.25728,2.376275 c 6.14392,2.777035 10.63955,7.52459 13.80451,14.578094 1.24521,2.775097 10.74071,28.670631 21.10111,57.545628 l 18.8371,52.5 -0.0245,12.5 c -0.0202,10.29017 -0.43027,13.7375 -2.31954,19.5 -2.7903,8.51078 -6.32863,13.88589 -11.97648,18.19365 -5.96387,4.5488 -10.99724,5.75863 -23.69791,5.69607 -18.68195,-0.092 -30.5918,-5.14881 -36.23789,-15.3862 -1.509,-2.73609 -2.99146,-4.98119 -3.29436,-4.98911 -0.30291,-0.008 -1.52809,1.99728 -2.72264,4.45601 -2.77432,5.7104 -9.58562,10.70005 -18.72663,13.71828 -9.234,3.04894 -26.13512,3.24771 -34.5,0.40575 -11.57852,-3.93379 -16.44866,-7.61735 -20.43083,-15.45297 l -2.22695,-4.38189 -1.39294,3.36287 c -1.88149,4.54231 -7.51445,10.61506 -11.94105,12.87334 -3.98989,2.03549 -12.94332,4.45951 -20.13735,5.45191 -6.13588,0.84644 -20.65937,-1.0225 -27.32436,-3.51619 -6.66006,-2.49185 -13.59418,-8.4932 -16.01431,-13.86009 l -1.84437,-4.09008 -1.69303,3.78152 c -6.18642,13.81779 -29.9337,21.64057 -50.77629,16.72661 -11.97904,-2.82424 -19.78874,-7.97929 -23.56321,-15.55367 l -2.551462,-5.12011 -1.42683,3.41488 c -3.5581,8.51573 -12.4517,14.55397 -25.51393,17.32247 -7.314515,1.55029 -17.245565,1.70292 -24.031345,0.36934 z M 221.2207,180.31808 c 1.67985,-1.91324 3.33575,-4.95074 3.67977,-6.75 0.34402,-1.79926 1.6929,-4.59952 2.99749,-6.2228 l 2.372,-2.95142 1.02708,2.70142 c 1.4922,3.92478 3.79844,3.3618 5.18487,-1.26567 0.98695,-3.29416 0.91442,-4.69359 -0.4276,-8.25 -1.29871,-3.44162 -1.41009,-5.16684 -0.56702,-8.78291 1.9558,-8.38883 -1.07243,-22.63053 -6.51506,-30.64006 -1.4001,-2.06044 -2.35288,-3.939 -2.11729,-4.17459 0.82095,-0.82096 9.68757,5.01012 14.21585,9.34898 3.78402,3.62573 4.42993,4.76169 3.79139,6.66796 -1.63965,4.895 -1.66781,13.22986 -0.0517,15.29771 1.545,1.97683 1.58049,1.97751 3.06311,0.0589 0.825,-1.06762 1.53671,-3.54262 1.58157,-5.5 l 0.0816,-3.55887 1.49091,3.42061 c 2.40489,5.51757 2.88264,16.05603 0.9809,21.63733 -2.77704,8.15016 -1.83455,16.5001 1.70894,15.14033 2.44188,-0.93703 3.30106,-8.16842 1.68695,-14.19827 -0.14723,-0.55 -0.2144,-2.99094 -0.14927,-5.42431 l 0.11843,-4.42435 2.31445,2.17432 c 3.06307,2.8776 4.68555,2.74762 4.68555,-0.37535 0,-3.38204 -2.36684,-7.80713 -5.48961,-10.26351 -1.39127,-1.09437 -3.21321,-3.92739 -4.04877,-6.29561 -3.40819,-9.65985 -9.99906,-17.38452 -19.90279,-23.32661 l -5.94117,-3.56461 h 6.37556 c 3.50657,0 8.94854,0.72194 12.09327,1.60431 5.61234,1.57474 5.72933,1.68185 6.34874,5.81235 0.67228,4.48307 5.66039,11.58334 8.13757,11.58334 1.91748,0 1.84217,-4.67397 -0.13696,-8.5 -1.33855,-2.58766 -0.88442,-2.3453 3.30396,1.76325 5.02097,4.92527 10.2602,13.87242 10.2602,17.52156 0,4.79163 4.66393,12.21519 7.67431,12.21519 3.05916,0 0.32888,-10.47421 -3.41976,-13.11931 -1.78314,-1.25821 -5.25455,-6.83911 -5.25455,-8.44761 0,-0.36643 1.09591,-0.45674 2.43535,-0.20069 1.33945,0.25605 2.99137,0.12192 3.67093,-0.29808 2.98523,-1.84497 -5.56831,-8.93431 -10.77957,-8.93431 -1.02906,0 -3.43605,-1.26465 -5.34887,-2.81034 -8.91361,-7.20281 -17.38244,-10.18966 -28.89148,-10.18966 h -7.55063 l 3.85296,-2.61815 c 4.48043,-3.04453 13.43151,-6.38185 17.11688,-6.38185 1.66665,0 3.62015,1.21254 5.61633,3.48605 5.00797,5.70376 15.2185,7.2344 11.80579,1.76977 -0.68008,-1.08898 -2.40453,-2.74534 -3.8321,-3.6808 l -2.59559,-1.70084 4,0.65364 c 6.41824,1.0488 14.47843,5.4085 19.41716,10.50259 5.01535,5.17313 7.85509,6.96959 11.0171,6.96959 5.14804,0 -1.04147,-8.20593 -7.21132,-9.56063 -1.77262,-0.38921 -4.76293,-1.75396 -6.64515,-3.03279 l -3.4222,-2.32514 2.57506,-0.97903 c 5.13248,-1.95137 4.12128,-4.39058 -2.31899,-5.59389 -2.26528,-0.42324 -4.84627,-0.1502 -7,0.74054 -2.70008,1.11669 -4.90164,1.20243 -10.55536,0.41104 -10.05509,-1.40747 -19.47272,0.92249 -29.98224,7.41774 l -3.54346,2.18998 2.51825,-4.96953 c 1.38503,-2.73324 4.67982,-7.10057 7.32174,-9.70517 3.99673,-3.940271 5.22556,-4.622612 7.31645,-4.062654 5.92363,1.586394 12.50818,1.601708 14.51296,0.03375 1.97683,-1.546092 1.97751,-1.581596 0.0589,-3.064216 -1.06762,-0.825 -3.54262,-1.536708 -5.5,-1.581574 l -3.5589,-0.08157 3.5,-1.526967 c 5.44869,-2.377133 17.70381,-2.887675 22.37212,-0.932009 6.20235,2.598309 14.62788,2.016779 14.62788,-1.009616 0,-2.683277 -10.44513,-4.643724 -13.70432,-2.572165 -0.66237,0.421009 -3.01776,0.59253 -5.23419,0.38116 -3.88413,-0.370412 -3.9762,-0.460943 -2.54568,-2.503289 2.22739,-3.180043 1.82235,-4.674426 -1.26581,-4.670228 -3.26093,0.0044 -8.70757,3.114197 -10.13901,5.788881 -0.55916,1.044802 -3.17538,2.717395 -5.81382,3.716873 -10.13558,3.839499 -18.84839,11.517645 -24.14338,21.276304 l -3.10049,5.7142 0.0344,-7.5 c 0.0193,-4.20626 0.7913,-9.915407 1.75784,-12.999996 1.67851,-5.356766 1.83371,-5.514842 5.95924,-6.06993 6.54775,-0.880996 13.02643,-6.498819 10.45739,-9.067861 -0.92379,-0.923785 -2.09389,-0.838897 -5.18759,0.376344 l -3.99475,1.569182 1.56816,-2.393306 c 1.92269,-2.934397 12.66279,-10.229468 16.23883,-11.030008 7.69307,-1.722188 10.0907,-2.578932 12.48259,-4.460392 3.59079,-2.824485 3.41209,-4.924029 -0.41907,-4.924029 -3.41491,0 -7.90117,2.030906 -9.95628,4.507151 -0.74814,0.901464 -3.1204,2.536978 -5.27167,3.634476 l -3.91141,1.99545 0.67415,-3.069364 c 0.52566,-2.393316 0.29181,-3.216081 -1.06173,-3.735482 -2.44036,-0.936452 -7.14262,4.587073 -7.97985,9.373546 -0.36502,2.086823 -1.86483,5.369223 -3.33291,7.294223 -7.09232,9.299695 -10.09632,17.657469 -10.14244,28.218456 -0.0298,6.81269 -0.13338,7.15276 -1.60936,5.28154 -2.67859,-3.3959 -6.27794,-11.777739 -6.93277,-16.144403 -0.58064,-3.872027 -0.34854,-4.433119 3.37337,-8.155037 2.19831,-2.198306 4.30108,-5.381758 4.67284,-7.074339 1.29988,-5.918313 -1.87261,-6.915374 -5.96982,-1.876217 l -2.64249,3.25 0.68344,-3.5 c 1.21707,-6.232845 5.64811,-14.225852 10.487,-18.917157 5.17313,-5.015355 6.96959,-7.855088 6.96959,-11.017102 0,-5.517285 -7.91319,0.625049 -9.57758,7.434259 -0.40331,1.65 -1.73519,4.488724 -2.95972,6.308276 l -2.22642,3.308275 -1.06612,-3.058275 c -1.14113,-3.273446 -2.31651,-3.813956 -3.93224,-1.808276 -1.98021,2.458119 -2.37798,7.479035 -0.87709,11.071174 1.2003,2.872707 1.27663,4.805054 0.41079,10.398891 -1.3766,8.893589 0.82001,19.558772 5.69615,27.656391 1.86248,3.09295 2.89605,5.62354 2.29682,5.62354 -3.86037,0 -18.43137,-12.836309 -17.38974,-15.319479 2.38521,-5.686192 2.75632,-8.479667 1.66496,-12.532679 -1.54119,-5.723526 -4.11783,-5.331121 -5.65391,0.861053 l -1.11411,4.491109 -1.26294,-4.5 c -1.75679,-6.259667 -1.53027,-18.091002 0.41852,-21.859556 2.65796,-5.139927 1.74137,-13.140444 -1.50546,-13.140444 -2.8056,0 -4.44064,7.075627 -2.90361,12.56535 0.65176,2.32786 0.87167,5.65915 0.48868,7.402867 -0.64447,2.934266 -0.82549,3.053514 -2.4304,1.601089 -2.21482,-2.004388 -5.07658,-2.025351 -5.07658,-0.03719 0,2.932703 2.74679,8.07719 5.61403,10.514572 1.58728,1.34932 3.49848,4.253309 4.24709,6.453309 3.18106,9.348337 12.29977,19.824459 20.89473,24.005109 2.23536,1.0873 3.8532,2.31845 3.5952,2.73589 -1.08191,1.75058 -13.8878,0.29009 -20.47887,-2.33558 -2.05254,-0.81767 -2.74428,-1.91521 -3.15986,-5.01357 -0.63404,-4.72711 -5.02798,-10.891852 -7.76321,-10.891852 -2.37765,0 -2.60006,3.228502 -0.49978,7.254772 1.36294,2.61276 1.33735,2.70143 -0.49637,1.72005 -2.5583,-1.36915 -9.4871,-10.615612 -11.41834,-15.23771 -0.84404,-2.02008 -1.53462,-4.932865 -1.53462,-6.472856 0,-3.690967 -4.50593,-10.264253 -7.03605,-10.264253 -3.5749,0 -1.54481,8.446172 3.00444,12.5 1.23444,1.1 3.09078,3.658273 4.12521,5.685051 l 1.88078,3.685046 -3.36006,-0.54526 c -2.02743,-0.329 -3.644,-0.0858 -4.07598,0.61313 -1.00731,1.62986 6.05841,8.033952 9.03286,8.187032 3.78118,0.1946 3.7801,0.19413 7.96924,3.49435 8.81833,6.9471 20.51843,10.92004 30.16121,10.24166 3.59996,-0.25325 4.8632,-0.0381 4.23225,0.72068 -1.78971,2.15241 -10.73352,6.39645 -15.74447,7.4711 l -5.12503,1.09913 -3.79126,-3.98545 c -2.56493,-2.6963 -5.02547,-4.21698 -7.6069,-4.70126 -5.91951,-1.11051 -6.76661,0.76085 -2.26586,5.00561 2.05811,1.94105 3.47079,3.52918 3.13928,3.52918 -0.33151,0 -3.36374,-0.93011 -6.73828,-2.06691 -7.10743,-2.39432 -13.74883,-6.67775 -16.23362,-10.47002 -1.84955,-2.82276 -9.92666,-6.97732 -11.57929,-5.95595 -2.97335,1.83764 2.45724,7.94882 8.56127,9.63422 2.12412,0.5865 5.39334,2.10692 7.26494,3.3787 3.18323,2.16306 3.25723,2.33389 1.14625,2.64615 -1.24117,0.1836 -2.75263,1.13412 -3.3588,2.11228 -1.68171,2.71371 0.9756,3.87379 7.39787,3.22964 3.025,-0.30341 10.225,-0.51245 16,-0.46453 11.73217,0.0973 20.64187,-2.03768 27.19695,-6.51721 2.03332,-1.3895 3.9739,-2.52637 4.31241,-2.52637 1.53383,0 -5.17598,10.23178 -9.50785,14.49852 l -4.81173,4.73937 -4.44545,-1.69773 c -3.64786,-1.39313 -5.18234,-1.4993 -8.55266,-0.59177 -7.12912,1.91967 -6.73527,4.5431 0.88004,5.86192 l 4.42829,0.76689 -5,1.41443 c -6.94425,1.96444 -17.00016,1.7793 -22.70686,-0.41804 -7.06921,-2.72197 -14.86409,-0.77386 -11.77875,2.94375 1.73524,2.09084 7.63088,2.90552 11.85905,1.63873 2.02428,-0.60649 5.30521,-0.83906 7.29096,-0.51682 3.53867,0.57425 3.57293,0.62342 1.72303,2.47332 -2.26257,2.26257 -2.40413,3.75192 -0.42867,4.50998 2.64087,1.0134 8.51659,-1.72368 11.17097,-5.20375 1.43421,-1.88034 3.15736,-3.4188 3.82924,-3.4188 0.67187,0 3.89741,-1.33713 7.16787,-2.97139 7.2212,-3.60848 14.7298,-10.93824 19.18959,-18.73254 l 3.31644,-5.79607 -0.43882,8.5 c -0.24135,4.675 -1.05874,10.29252 -1.81643,12.48337 -1.19542,3.45653 -1.86221,4.06209 -5.04154,4.57859 -5.67827,0.92246 -11.72648,5.44103 -11.80428,8.81888 -0.0319,1.38641 3.66937,1.22166 8.4682,-0.37693 1.13099,-0.37676 -0.17251,1.39059 -3,4.06752 -5.52894,5.23453 -13.44439,9.40376 -17.88197,9.4188 -5.45531,0.0185 -12.19819,5.82961 -9.68291,8.34489 1.51707,1.51707 8.26268,-0.85114 11.12477,-3.90562 2.03198,-2.16857 7.84506,-5.4295 9.67887,-5.4295 0.27197,0 0.2478,0.9434 -0.0537,2.09645 -0.30153,1.15305 -0.31619,2.70117 -0.0326,3.44026 1.40887,3.67145 9.34754,-5.16324 9.34754,-10.40258 0,-1.15146 1.80357,-4.46519 4.00792,-7.36384 5.61247,-7.38021 8.14174,-14.58212 8.8748,-25.27029 l 0.61728,-9 2.63462,4.5 c 3.09079,5.27916 5.86538,13.06871 5.86538,16.46685 0,1.50092 -1.07895,3.16524 -2.88626,4.45216 -2.72816,1.94262 -6.11374,8.36699 -6.11374,11.60123 0,2.59136 3.72665,1.59333 6.54143,-1.75185 l 2.71922,-3.23161 -0.6967,3.48161 c -1.27824,6.38772 -6.50141,15.77223 -10.8502,19.49463 -4.92825,4.2184 -6.62956,6.95367 -6.67831,10.73698 -0.0487,3.77858 2.08966,3.51049 5.81164,-0.72862 z"
       style="fill:#da76ab" />
  </g>
</svg>
