<?xml version="1.0" encoding="UTF-8" standalone="no"?>
<svg
   xmlns:dc="http://purl.org/dc/elements/1.1/"
   xmlns:cc="http://creativecommons.org/ns#"
   xmlns:rdf="http://www.w3.org/1999/02/22-rdf-syntax-ns#"
   xmlns:svg="http://www.w3.org/2000/svg"
   xmlns="http://www.w3.org/2000/svg"
   viewBox="0 0 1023.4921 1155.5555"
   height="1155.5555"
   width="1023.4921"
   id="svg108"
   version="1.1">
  <metadata
     id="metadata114">
    <rdf:RDF>
      <cc:Work
         rdf:about="">
        <dc:format>image/svg+xml</dc:format>
        <dc:type
           rdf:resource="http://purl.org/dc/dcmitype/StillImage" />
        <dc:title></dc:title>
      </cc:Work>
    </rdf:RDF>
  </metadata>
  <defs
     id="defs112" />
  <g
     id="g116">
    <path
       id="path120"
       d="m 32.008273,1123.3036 c -7.25377,-1.4139 -15.92362,-12.3926 -15.92362,-20.1642 0,-3.3093 26.49423,-112.01231 58.87606,-241.56227 C 128.43578,647.63944 134.47527,625.39103 140.7971,619.04759 l 6.96033,-6.98413 h 84.23866 84.23868 l -4.67823,-7.54405 c -2.57302,-4.14925 -20.78015,-31.29211 -40.46025,-60.31745 -19.68013,-29.02537 -39.83524,-61.34484 -44.78915,-71.82103 -55.88777,-118.18755 -32.4324,-257.98196 58.81257,-350.52388 58.80466,-59.640513 135.17883,-91.875871 218.58401,-92.258081 36.50481,-0.167289 59.89818,3.357938 93.96825,14.16038 48.90136,15.504934 89.74208,40.545192 127.16321,77.966331 37.29194,37.29193 58.8351,72.05808 74.71228,120.56995 11.18418,34.17268 14.89717,59.34944 14.8304,100.5615 -0.0902,55.72332 -12.86773,102.85508 -40.81651,150.55832 -7.79469,13.30402 -124.80204,185.30901 -223.89763,329.1375 -30.72389,44.59302 -37.19188,49.92935 -51.97381,42.88031 -5.88038,-2.80414 -13.91558,-11.88023 -25.71114,-29.04181 -9.43667,-13.7296 -19.5011,-27.53434 -22.36538,-30.6772 l -5.20777,-5.71429 H 291.51354 138.62146 l -13.11563,52.69841 c -7.2136,28.98413 -13.7149,54.68693 -14.44733,57.11736 -1.26039,4.18235 18.24446,4.45427 364.34133,5.07936 l 365.67299,0.66042 6.55355,6.15698 c 7.10801,6.67792 8.78339,19.21679 3.80945,28.5107 -6.81824,12.74002 6.4802,12.31645 -386.69959,12.31645 H 97.986543 l -13.11563,52.69846 c -7.2136,28.9841 -13.71854,54.6984 -14.45542,57.1428 -1.27235,4.2208 20.59183,4.4445 434.386917,4.4445 239.64971,0 435.72672,-0.407 435.72672,-0.9044 0,-1.0971 -62.64427,-255.47083 -66.23071,-268.93691 l -2.53651,-9.52381 H 759.9184 648.0749 l -7.42367,-7.42369 c -4.08305,-4.08303 -7.4237,-9.85407 -7.4237,-12.82454 0,-7.51306 6.7087,-19.72078 12.55774,-22.85109 3.12366,-1.67172 42.5057,-2.61496 109.18007,-2.61496 57.36168,0 104.23929,-0.85715 104.17252,-1.90476 -0.0668,-1.04762 -4.99847,-21.90476 -10.95931,-46.34921 l -10.8379,-44.44444 -48.94938,-1.26984 -48.94939,-1.26984 -6.12304,-7.12574 c -8.46967,-9.85664 -8.00262,-20.59177 1.30064,-29.89501 l 7.42367,-7.4237 h 58.44275 c 32.56602,0 61.38156,1.11734 65.0801,2.52353 3.88861,1.47846 8.15152,6.14738 10.29354,11.27396 6.22352,14.89498 118.00292,465.79735 118.00292,476.00725 0,7.0654 -1.74395,11.2657 -6.55365,15.7843 l -6.55365,6.157 -471.5416,0.299 c -259.3479,0.1646 -474.090257,-0.1978 -477.205287,-0.8049 z M 410.67947,748.57139 c -11.79972,-19.76274 -60.29374,-88.07011 -63.35957,-89.24657 -2.2174,-0.85089 -42.08188,-1.54707 -88.5878,-1.54707 h -84.55618 l -10.57662,42.53968 c -5.81714,23.39682 -11.17897,44.53968 -11.91519,46.98412 -1.26275,4.19269 6.08818,4.44445 129.77612,4.44445 104.20954,0 130.72573,-0.65143 129.21924,-3.17461 z m 93.73599,-154.00238 c 5.08622,-5.62984 10.68437,-15.72937 13.02159,-23.49206 2.25486,-7.48917 6.8509,-16.94669 10.21344,-21.01671 l 6.11367,-7.40005 3.88782,9.30481 c 7.39673,17.70289 16.84539,8.51332 16.84539,-16.38346 0,-6.96257 -1.63939,-15.82944 -3.6431,-19.70418 -2.70682,-5.23439 -3.04874,-9.60774 -1.33044,-17.01673 8.06695,-34.78299 -2.43088,-82.59144 -24.63141,-112.17465 l -6.17964,-8.23464 6.92816,2.63405 c 12.45534,4.73552 40.09615,24.86601 48.93323,35.63754 l 8.64823,10.54131 -4.21636,11.76469 c -5.17965,14.4526 -5.33407,25.70055 -0.51129,37.2431 6.29075,15.05582 13.94985,10.66855 17.87701,-10.2403 l 1.90806,-10.15873 3.75086,10.15873 c 2.06298,5.5873 4.33006,20.44444 5.03792,33.01587 1.02854,18.26679 0.3701,25.1523 -3.27866,34.28571 -5.89252,14.74984 -6.38659,41.46258 -0.86885,46.97574 3.61138,3.60841 4.41887,3.49029 8.73372,-1.27758 5.82626,-6.43792 8.31608,-32.17097 3.90941,-40.4049 -1.9386,-3.62233 -2.37136,-10.48203 -1.235,-19.57697 l 1.74926,-14.00073 7.15306,6.85308 c 8.1439,7.80233 15.10492,6.88424 15.01958,-1.98101 -0.0993,-10.30781 -9.45257,-26.90824 -18.5044,-32.84185 -6.52775,-4.27906 -9.83962,-9.11063 -12.90002,-18.81925 -9.75466,-30.94542 -36.27019,-61.01221 -70.3936,-79.82156 l -13.70176,-7.55263 13.96825,-0.30332 c 24.00041,-0.52116 31.23271,0.33466 48.88889,5.7852 14.47429,4.46829 17.14286,6.17597 17.14286,10.97021 0,13.18113 3.85138,22.50854 13.8576,33.56073 16.95843,18.7312 24.9885,10.40076 14.02463,-14.54928 l -5.02209,-11.42857 15.23131,15.93498 c 17.69537,18.51286 29.87546,40.93674 33.1439,61.01879 2.56541,15.76252 13.68219,32.25257 21.74306,32.25257 11.03571,0 4.33143,-28.88543 -9.3826,-40.42501 -4.1073,-3.45608 -9.70207,-11.4961 -12.43286,-17.86674 l -4.96503,-11.58296 9.75667,1.56015 c 11.32333,1.81067 15.04833,-1.72003 10.59457,-10.04198 -4.49331,-8.39583 -18.98652,-17.15954 -31.05506,-18.77829 -7.77641,-1.04302 -14.83287,-4.70199 -24.91741,-12.92035 -25.94657,-21.14499 -55.0618,-30.89719 -92.24364,-30.89719 H 520.3024 l 9.68157,-6.5788 c 14.01394,-9.52271 34.55901,-18.1058 50.10113,-20.93066 l 13.52663,-2.45857 11.55393,12.20432 c 7.5457,7.97044 15.23228,13.28828 22.15693,15.32889 24.61968,7.25514 24.37773,-5.84417 -0.44427,-24.05211 -4.50349,-3.3035 -3.49567,-3.35373 8.88889,-0.44318 27.5308,6.47017 54.51185,22.08038 64.67084,37.41608 6.30458,9.51723 24.06959,19.99022 33.90877,19.99022 8.03066,0 7.24165,-10.12529 -1.43675,-18.43774 -7.37838,-7.06728 -22.80256,-14.51353 -30.39461,-14.6735 -2.48932,-0.0523 -8.94929,-3.88206 -14.35553,-8.51027 l -9.82949,-8.41494 7.98469,-1.59695 c 4.39156,-0.8783 8.65699,-3.34895 9.4787,-5.49031 4.23667,-11.04061 -18.91403,-17.22369 -38.94009,-10.40012 -10.29107,3.50651 -15.07421,3.70339 -31.52676,1.29772 -32.5617,-4.76117 -69.07482,3.50997 -96.26235,21.80582 -6.96437,4.6867 -12.6625,7.30908 -12.6625,5.82753 0,-6.35642 17.10707,-31.75929 30.837,-45.79091 11.27023,-11.51787 15.95739,-14.7444 19.32287,-13.30146 19.27767,8.26527 25.25306,9.15396 38.98528,5.79802 10.88782,-2.6608 13.87476,-4.4945 14.50229,-8.90298 0.64346,-4.52041 -1.0082,-6.05143 -8.88889,-8.23983 -5.32355,-1.47827 -12.53633,-2.80827 -16.02839,-2.95555 -4.19881,-0.17702 -1.18824,-1.9471 8.88889,-5.22616 20.08241,-6.53473 56.01753,-6.76899 67.93514,-0.44289 11.3408,6.01993 38.22791,6.21592 44.13069,0.32167 6.14558,-6.13668 1.18311,-11.17541 -14.27022,-14.48955 -9.25587,-1.98504 -15.09839,-1.82936 -23.32622,0.62159 -6.47368,1.92841 -16.54146,2.68269 -24.53951,1.83855 l -13.56221,-1.43139 6.57808,-6.15698 c 9.24188,-8.65031 8.74004,-15.43032 -1.14217,-15.43032 -10.69567,0 -25.73707,8.20747 -33.43751,18.24546 -4.30342,5.60975 -11.0177,10.00008 -20.11152,13.15048 -32.30651,11.192 -64.24884,40.17777 -78.4127,71.15489 l -6.82735,14.93181 -1.57974,-15.11419 c -1.87814,-17.96896 -0.49074,-29.28878 6.36242,-51.91154 l 5.1028,-16.84467 12.39297,-1.1908 c 13.91363,-1.33692 29.96495,-10.94583 35.47119,-21.23434 2.93729,-5.48836 2.90402,-6.77277 -0.22553,-8.70692 -4.13917,-2.55816 -13.04114,-0.92559 -23.39578,4.29067 -21.56153,10.86184 13.12381,-22.20804 36.18461,-34.49931 8.0768,-4.3049 17.3823,-7.83347 20.67883,-7.84126 16.68816,-0.0394 42.81913,-14.96382 42.81913,-24.45561 0,-10.50805 -26.23911,-4.7149 -40.24054,8.88443 -7.60736,7.38886 -25.37348,18.12503 -29.99317,18.12503 -0.60916,0 -0.46014,-3.71429 0.33118,-8.25397 0.79131,-4.53968 0.32665,-9.94673 -1.03259,-12.01567 -2.13018,-3.24248 -3.43052,-3.04555 -9.42069,1.42676 -10.89014,8.13066 -16.39868,17.06756 -18.01164,29.22148 -1.06984,8.06167 -4.53168,14.95472 -12.3299,24.5508 -21.2189,26.11088 -31.48777,56.01002 -31.58136,91.95339 l -0.0564,21.68863 -4.90232,-6.3492 c -8.1826,-10.59764 -17.32254,-31.1743 -21.84569,-49.18106 l -4.28525,-17.05975 10.8387,-9.27754 c 16.66377,-14.26357 25.97868,-39.29022 16.04292,-43.10294 -3.01358,-1.15642 -7.41577,1.84413 -15.00673,10.22858 l -10.74214,11.86507 3.14631,-13.32348 c 5.58537,-23.65204 16.49508,-42.66439 34.73345,-60.52995 17.79741,-17.43362 26.66123,-34.83742 20.75228,-40.74637 -7.26121,-7.26121 -26.83495,12.37053 -30.19578,30.28522 -0.93214,4.96886 -5.1682,13.96199 -9.41341,19.98473 l -7.71857,10.95044 -3.10952,-9.04497 c -3.98867,-11.60222 -5.41706,-12.88584 -10.68406,-9.60119 -7.35807,4.58866 -9.81752,24.94256 -4.74103,39.23573 3.71769,10.46738 3.94822,14.81698 1.56495,29.52675 -5.05572,31.2047 3.04872,70.57907 19.57824,95.11832 12.24457,18.17793 12.08119,17.6481 4.56008,14.78857 -12.34583,-4.69387 -33.96313,-20.56414 -45.52054,-33.41877 -11.06489,-12.30681 -11.30039,-12.91126 -7.72472,-19.82582 8.27733,-16.00661 6.56254,-46.43772 -2.81963,-50.038 -5.67114,-2.17622 -8.63515,2.07134 -12.07848,17.30906 l -3.08117,13.63515 -4.33176,-17.02989 c -5.93133,-23.3181 -5.63459,-49.31819 0.74753,-65.50979 8.14855,-20.67301 5.94184,-45.71429 -4.02847,-45.71429 -8.60264,0 -14.80503,31.7111 -8.50486,43.48304 1.63388,3.05297 2.02169,10.52079 0.9795,18.86213 l -1.7252,13.80826 -7.52361,-6.33068 c -8.74293,-7.3567 -11.78342,-7.86619 -13.90766,-2.33051 -2.93628,7.65184 4.58408,25.00747 15.2381,35.16676 5.9108,5.63631 12.85666,15.89272 15.99916,23.62473 14.04952,34.56805 37.21996,60.94227 67.0593,76.33163 14.67335,7.56764 15.13669,8.08333 8.71167,9.6959 -9.6147,2.41313 -38.37783,-0.6748 -55.85917,-5.99688 l -14.84203,-4.51858 -3.53608,-15.91977 c -2.7358,-12.31687 -5.75733,-18.2548 -13.35106,-26.23746 -5.39825,-5.67474 -11.30913,-9.82676 -13.13532,-9.22674 -5.32777,1.75061 -5.36198,14.18034 -0.0686,24.87942 4.51444,9.12447 4.54581,9.70024 0.40793,7.48571 -14.19556,-7.59726 -43.02474,-53.36858 -43.02474,-68.30928 0,-4.38029 -1.57354,-11.64172 -3.49674,-16.13656 -4.31225,-10.07842 -17.97087,-23.2992 -21.69371,-20.99835 -7.51073,4.64188 1.13584,33.34812 12.42687,41.25664 4.31311,3.02103 17.84294,25.55715 17.84294,29.7203 0,0.64734 -3.49404,0.17499 -7.76457,-1.04985 -4.2705,-1.22479 -9.41336,-1.59416 -11.42857,-0.82085 -12.81288,4.91677 9.88051,27.46991 29.35187,29.17051 5.93958,0.51873 14.36618,4.93158 25.39683,13.29981 9.07937,6.88792 22.79365,15.32947 30.47619,18.75901 18.47495,8.24731 50.90809,13.85915 68.57143,11.86478 l 13.96826,-1.57714 -12.69842,8.72356 c -14.55537,9.99923 -35.71776,18.45506 -52.1633,20.84274 -10.67396,1.54974 -11.62235,1.18611 -16.40813,-6.29118 -8.09257,-12.64381 -26.59154,-21.85965 -41.26984,-20.55984 -8.87904,0.78626 1.06733,16.7328 15.87302,25.44848 4.33356,2.55103 3.77422,2.7441 -3.80953,1.31482 -28.58771,-5.38781 -49.14755,-16.59132 -69.84127,-38.05798 -16.07825,-16.67881 -31.69512,-24.21204 -38.49461,-18.56894 -7.96374,6.60929 16.75423,30.14473 31.65936,30.14473 2.9793,0 10.56119,3.62604 16.84869,8.05786 l 11.43177,8.05785 -10.30786,4.61496 c -5.87599,2.63076 -9.85397,5.99088 -9.25219,7.81516 3.03161,9.1904 31.3984,12.82474 45.03979,5.77049 5.79482,-2.99662 10.04656,-3.2595 20.53799,-1.26984 35.56287,6.74435 73.82207,-1.03911 103.50921,-21.05793 6.03466,-4.06933 11.42989,-6.941 11.98941,-6.38151 0.55948,0.55952 -2.1757,7.05415 -6.07823,14.43253 -7.90875,14.95281 -25.4802,36.40064 -34.85333,42.54215 -5.59043,3.66298 -7.02009,3.6562 -16.35162,-0.0775 -5.62408,-2.25039 -14.81062,-4.09156 -20.41453,-4.09156 -12.53044,0 -28.63827,6.37252 -27.19175,10.75751 1.67368,5.07358 12.46126,9.4817 23.30357,9.52251 23.47287,0.0884 -6.48172,9.74913 -36.61376,11.80846 -17.12821,1.17062 -23.94802,0.5568 -33.01588,-2.97153 -14.32178,-5.57262 -38.44297,-7.61163 -45.48167,-3.84462 -17.76111,9.50545 12.2851,22.16833 36.50824,15.38626 6.90357,-1.93288 15.91665,-2.47972 23.10461,-1.40183 l 11.78545,1.76734 -5.33928,5.68338 c -5.67639,6.04226 -6.95167,12.94859 -2.85816,15.47852 5.90974,3.65242 24.46875,-4.56439 34.96587,-15.48083 6.86893,-7.14332 15.83982,-13.10393 24.72518,-16.42835 31.22022,-11.68099 60.13544,-37.44187 74.0959,-66.01282 3.9732,-8.13143 8.24736,-14.84589 9.49807,-14.92104 3.90611,-0.23467 -0.33407,48.45897 -5.51692,63.35545 -4.74996,13.6524 -5.11842,14.00531 -16.29305,15.60691 -19.74971,2.83063 -39.14773,16.79291 -37.10336,26.70621 1.19278,5.7839 13.68388,5.38824 25.67631,-0.81328 l 8.00953,-4.1419 -8.60602,9.89245 c -17.30939,19.89681 -42.27152,34.58671 -63.98372,37.65368 -16.38139,2.31396 -35.25047,14.61296 -35.25047,22.97651 0,5.30781 1.1965,6.39558 6.98413,6.34936 9.57669,-0.0764 26.00424,-8.02499 33.58232,-16.24886 4.65583,-5.05257 24.90863,-16.71124 29.02985,-16.71124 0.2085,0 -0.0439,4.43766 -0.56125,9.86151 -1.11713,11.71431 2.5359,14.94258 10.78936,9.5347 8.53341,-5.59131 16.18118,-19.1171 18.21328,-32.2119 1.16115,-7.48239 4.53905,-14.42799 9.979,-20.51863 21.32053,-23.87076 32.25597,-53.78448 32.65576,-89.32929 0.27729,-24.65158 0.32427,-24.83111 4.99104,-19.07185 11.04541,13.63111 24.61133,48.56779 24.39741,62.83134 -0.0676,4.51184 -2.58781,8.08932 -8.17336,11.60254 -10.43248,6.56182 -19.57046,22.82313 -19.62354,34.92063 -0.0617,14.08099 9.93254,11.71332 21.70867,-5.14278 l 6.60927,-9.46039 -1.77641,8.88888 c -5.51725,27.60785 -20.30824,55.05951 -36.81219,68.32241 -13.16933,10.58319 -20.22554,21.9601 -20.2378,32.62997 -0.0127,11.54176 7.15616,10.91271 18.48001,-1.62144 z"
       style="fill:#da76ab;stroke-width:2.53968" />
  </g>
</svg>
