<?xml version="1.0" encoding="UTF-8" standalone="no"?>
<svg
   xmlns:dc="http://purl.org/dc/elements/1.1/"
   xmlns:cc="http://creativecommons.org/ns#"
   xmlns:rdf="http://www.w3.org/1999/02/22-rdf-syntax-ns#"
   xmlns:svg="http://www.w3.org/2000/svg"
   xmlns="http://www.w3.org/2000/svg"
   viewBox="0 0 540 555"
   height="555"
   width="540"
   id="svg10"
   version="1.1">
  <metadata
     id="metadata16">
    <rdf:RDF>
      <cc:Work
         rdf:about="">
        <dc:format>image/svg+xml</dc:format>
        <dc:type
           rdf:resource="http://purl.org/dc/dcmitype/StillImage" />
        <dc:title></dc:title>
      </cc:Work>
    </rdf:RDF>
  </metadata>
  <defs
     id="defs14" />
  <g
     id="g18">
    <path
       id="path22"
       d="m 246.94063,531.67346 c -2.88981,-2.88981 -2.56704,-9.88888 0.85599,-18.56172 5.25915,-13.32493 11.62531,-20.92261 23.70455,-28.2901 3.64001,-2.22015 6.98482,-5.73111 11.9156,-12.50747 6.4483,-8.86188 17.14759,-27.35031 16.31152,-28.18638 -0.20954,-0.20954 -2.569,0.27751 -5.24325,1.08234 -6.12283,1.8427 -21.38161,1.88235 -28.17602,0.0732 -8.69636,-2.31557 -17.42293,-7.5774 -24.49278,-14.76834 l -6.62438,-6.73785 -2.12562,2.26261 c -1.6779,1.78604 -2.12561,3.52121 -2.12561,8.23806 0,12.10236 -4.13875,22.68281 -12.9982,33.2291 -8.53582,10.16104 -17.10058,13.58753 -20.07429,8.0311 -1.69744,-3.17169 -1.24811,-12.00236 0.92538,-18.18631 1.09765,-3.12303 1.79481,-5.67824 1.54923,-5.67824 -0.24558,0 -3.92403,1.72442 -8.17432,3.83205 -4.25029,2.10763 -10.3195,4.86159 -13.48713,6.11993 -4.67188,1.85589 -6.69713,3.46643 -10.72611,8.52972 -2.73173,3.43301 -7.38513,7.90742 -10.3409,9.94313 -7.38914,5.0891 -20.54527,9.54482 -28.23253,9.56179 -9.02602,0.0199 -11.55771,-2.8442 -8.46948,-9.58163 5.12611,-11.18334 25.0048,-22.40499 39.68952,-22.40499 15.3559,0 43.92125,-15.15383 63.14832,-33.5 8.16144,-7.78752 8.35073,-8.07304 7.1268,-10.75 -1.49977,-3.28028 -1.13391,-3.244 -7.66853,-0.76032 -8.20146,3.11721 -15.51068,3.66083 -18.63196,1.38573 -1.58936,-1.15847 -2.58496,-2.86114 -2.60438,-4.45397 -0.0691,-5.67234 10.25322,-17.04131 21.21858,-23.37001 l 4.75,-2.74147 v -16.464 c 0,-12.9065 -0.2701,-16.30114 -1.25,-15.7103 -0.6875,0.41453 -3.95,2.9949 -7.25,5.73416 -13.79305,11.44929 -33.20185,22.02255 -51.22527,27.90582 l -10.22528,3.33777 -3.87773,5.9433 c -5.51914,8.45904 -11.61131,14.04345 -19.67172,18.03213 -16.7703,8.29877 -28.5059,8.34179 -28.49626,0.10446 0.005,-4.31832 3.07109,-9.26753 9.17194,-14.80538 l 5.08096,-4.61208 -10.37832,-0.72369 c -5.70808,-0.39803 -12.512488,-1.12281 -15.120916,-1.61063 -4.15237,-0.77656 -5.67861,-0.51214 -12.26376,2.12468 -12.41433,4.97094 -25.42396,4.92498 -38.95495,-0.13761 -14.87473,-5.56535 -13.68954,-14.68697 2.38332,-18.34266 13.98468,-3.18075 26.80787,-1.63757 37.93423,4.56511 7.48508,4.17276 17.584926,5.84896 35.242486,5.84896 21.34424,0 40.67211,-3.56948 56.72582,-10.47616 l 5.67545,-2.44171 -8.61351,-0.0411 c -11.09743,-0.0529 -18.0452,-1.39332 -24.88649,-4.80128 -5.25529,-2.61789 -5.5,-2.91296 -5.5,-6.63187 0,-2.99036 0.5792,-4.32172 2.5,-5.74653 4.64654,-3.4467 14.13689,-6.04664 24.09518,-6.601 11.68455,-0.65047 17.67518,0.59567 28.13929,5.8534 4.25397,2.13742 8.14649,3.88621 8.65005,3.88621 1.17419,0 15.71066,-11.79977 19.51386,-15.84009 2.75293,-2.92458 2.86813,-3.40297 2.29568,-9.53321 -0.69479,-7.44033 -3.52737,-14.13476 -7.65339,-18.08773 l -2.87861,-2.75789 -9.33103,3.02429 c -27.44118,8.89399 -56.97381,10.32508 -84.16716,4.07856 l -9.30283,-2.13693 -4.10181,2.58936 c -2.256,1.42414 -6.94973,3.55383 -10.430518,4.73262 -12.076258,4.08972 -35.651378,1.2044 -41.317688,-5.0568 -2.32987,-2.57447 -2.23473,-6.73292 0.20997,-9.17762 2.26577,-2.26573 14.18114,-6.83452 17.8245,-6.83452 3.60642,0 3.02419,-1.13867 -2.29728,-4.4928 -2.61152,-1.64604 -8.12321,-5.51813 -12.24821,-8.60463 -6.406,-4.79325 -8.30227,-5.6934 -13,-6.17105 -14.29481,-1.45344 -30.09745,-11.26775 -38.12433,-23.6773 -4.9049504,-7.58304 -2.9177304,-13.05422 4.7415,-13.05422 8.27726,0 24.42497,7.56755 32.04728,15.01881 1.9586,1.91466 5.50416,6.48451 7.87901,10.15523 7.36689,11.38673 28.47685,25.41826 50.956536,33.87021 6.81362,2.5618 23.78851,6.72562 30.5,7.48145 l 5.5,0.61939 -5.23824,-2.97875 c -17.96313,-10.21479 -27.15241,-22.27569 -21.37433,-28.05377 2.50991,-2.50991 6.15387,-2.66276 14.81148,-0.62131 15.36751,3.62363 29.04854,13.41864 36.52693,26.15166 l 3.44,5.85708 4.91708,-0.33723 c 8.9858,-0.61627 33.45359,-6.52079 33.39344,-8.05844 -0.013,-0.33238 -1.86224,-1.95433 -4.10943,-3.60433 -5.46564,-4.01315 -18.00829,-17.39551 -21.82594,-23.28714 -2.68732,-4.14724 -3.91763,-5.04132 -9.8069,-7.12682 -17.26159,-6.11263 -38.95368,-19.27472 -52.01271,-31.55973 l -8.00052,-7.52631 h -7.02134 c -12.361966,0 -23.706766,-4.91294 -34.544176,-14.9596 -8.40651,-7.79313 -10.68325,-15.34954 -5.46607,-18.14169 2.79166,-1.49406 14.24833,-0.57836 19.33025,1.545 2.08315,0.8704 3.928,1.4421 4.09964,1.27046 0.17165,-0.17165 -1.86096,-4.79006 -4.51692,-10.26313 -2.65595,-5.47307 -5.36985,-11.62177 -6.03088,-13.66377 -0.82284,-2.54188 -2.72119,-4.82802 -6.01958,-7.24926 -12.66472,-9.29676 -21.05178,-25.14727 -21.05178,-39.78525 0,-7.70957 1.14333,-9.75276 5.45744,-9.75276 4.85293,0 10.96081,5.05521 17.21145,14.24511 6.128,9.0096 9.33111,18.34785 9.33111,27.20367 0,3.5112 0.81977,8.60153 1.87532,11.64467 7.81357,22.52655 24.128306,46.10528 43.169416,62.39025 8.86868,7.58496 11.85595,9.21414 8.10264,4.41896 -5.04801,-6.44927 -11.14738,-22.4536 -11.14738,-29.24995 0,-3.77354 1.95685,-7.40816 4.32139,-8.0265 5.19387,-1.35823 15.25666,6.4503 23.01001,17.8553 5.85043,8.60586 8.73086,17.23556 9.39325,28.14196 l 0.5541,9.12347 4.97954,2.17429 c 2.73874,1.19585 5.14792,2.0059 5.35373,1.80009 0.2058,-0.20581 -0.4729,-2.1398 -1.50823,-4.29776 -3.3467,-6.97556 -6.93975,-19.87152 -8.54082,-30.6542 -1.87396,-12.62043 -1.92553,-16.2324 -0.41793,-29.26936 l 1.15641,-10 -3.56367,-9 c -1.96001,-4.95 -4.31068,-11.71819 -5.22369,-15.04043 -1.52134,-5.53574 -2.03938,-6.24167 -6.20026,-8.44901 -10.33636,-5.48343 -18.12028,-15.245 -22.85468,-28.66137 -2.51198,-7.11845 -3.16492,-15.16192 -1.48553,-18.2999 2.69113,-5.02842 10.64913,-2.49923 18.72115,5.9499 2.62768,2.75045 5.12132,5.00081 5.54141,5.00081 0.4201,0 0.78168,-3.2625 0.80351,-7.25 0.0218,-3.9875 0.60578,-10.47449 1.29767,-14.415544 1.2357,-7.038666 1.20444,-7.295436 -1.76522,-14.5 -2.73533,-6.636063 -3.02353,-8.381862 -3.02666,-18.334446 -0.004,-12.606026 1.86767,-20.333249 6.58609,-27.191225 2.28676,-3.323693 3.59629,-4.308775 5.72791,-4.308775 6.89542,0 10.67175,9.455366 10.5837,26.5 -0.0603,11.669847 -1.85602,18.464532 -7.00356,26.5 -4.27857,6.67897 -6.50226,31.06163 -4.50662,49.41479 1.09193,10.04206 5.30434,28.88869 8.06541,36.0852 1.05808,2.75782 1.25579,2.85734 2.44907,1.23286 0.71393,-0.97192 1.6083,-4.50923 1.98747,-7.86068 0.94198,-8.326 3.96187,-17.60123 6.66891,-20.48274 1.25902,-1.34016 3.39538,-2.38944 4.86497,-2.38944 1.9685,0 3.56678,-1.24124 6.42597,-4.99046 5.11075,-6.70165 18.46637,-19.15782 25.44403,-23.73048 3.11365,-2.04045 5.93818,-4.10415 6.27674,-4.58599 0.33856,-0.48184 -0.55511,-3.1974 -1.98594,-6.03458 -2.38503,-4.729224 -2.60267,-6.19865 -2.61536,-17.65848 -0.0106,-9.586726 0.4151,-13.730808 1.82662,-17.781036 2.17941,-6.253627 6.06671,-11.218964 8.78319,-11.218964 5.11678,0 10.18525,7.68188 11.52692,17.47043 0.34147,2.491263 0.94366,4.52957 1.33821,4.52957 0.39455,0 2.88205,-3.2625 5.52779,-7.25 2.64574,-3.9875 6.49149,-9.275 8.5461,-11.75 2.90068,-3.494176 3.89658,-5.72934 4.4556,-10 1.22403,-9.351018 4.28604,-17.518912 8.86769,-23.654506 4.48445,-6.005427 11.21621,-12.78538 15.58612,-15.697697 3.50495,-2.3358696 9.67493,-2.1750796 10.99231,0.286461 5.33564,9.96975 -9.34038,37.604909 -23.92086,45.043317 -5.49729,2.804507 -9.53107,7.193887 -17.48137,19.022425 -6.49511,9.663502 -14.37014,24.52579 -13.47154,25.42439 0.27214,0.27213 3.23325,-0.35752 6.58026,-1.399224 19.81388,-6.166766 46.1719,-7.204616 62.41571,-2.457626 1.14998,0.33606 1.92238,-0.65556 2.80481,-3.60082 3.84493,-12.833262 18.26107,-28.96672 25.88336,-28.96672 5.08966,0 6.60274,2.859854 5.94635,11.23914 -0.31284,3.993473 -1.2842,8.94836 -2.15858,11.01086 -0.87439,2.0625 -1.3428,3.75 -1.04092,3.75 0.30189,0 4.69543,-1.96668 9.76342,-4.370391 5.068,-2.403715 11.23954,-5.140518 13.71454,-6.081785 3.37811,-1.284729 5.48631,-3.0787 8.45618,-7.195792 6.48516,-8.990273 16.86178,-15.42859 30.48962,-18.917694 6.84381,-1.752204 14.05815,-1.505879 16.55365,0.565208 0.8253,0.684939 1.50055,2.811795 1.50055,4.726347 0,2.971318 -0.98833,4.458783 -6.75,10.158953 -10.62878,10.515327 -23.69965,16.115154 -37.61528,16.115154 -5.83786,0 -15.14765,3.27175 -27.13472,9.53598 -9.62763,5.03123 -15.03684,8.6106 -15.05776,9.96401 -0.009,0.55 3.06706,2.84457 6.83457,5.09905 15.78751,9.44721 29.1984,22.02159 38.73536,36.31922 l 4.76315,7.14083 2.5162,-4.29356 c 6.6573,-11.35983 24.22129,-22.47512 37.15489,-23.5133 11.37739,-0.91327 14.50657,3.69984 8.70986,12.84029 -1.56405,2.46626 -4.711,6.08241 -6.99321,8.0359 -2.28222,1.9535 -3.85254,3.84875 -3.48961,4.21169 0.36294,0.36293 3.7165,0.65988 7.45237,0.65988 3.73587,0 10.14246,0.49825 14.23688,1.10722 7.11536,1.05827 7.74699,0.98501 14.29084,-1.65757 12.25905,-4.95052 30.38296,-4.35459 42.21906,1.38819 6.12795,2.97324 8.62475,6.04444 7.74938,9.53217 -0.72576,2.89166 -3.5009,4.79638 -10.12198,6.94723 -12.75839,4.14453 -26.35185,3.02641 -39,-3.20793 -4.4,-2.16878 -10.925,-4.52686 -14.5,-5.24018 -14.24148,-2.8416 -56.13972,-0.78072 -55.27451,2.71883 1.38995,5.62202 5.32956,13.6675 7.54638,15.41126 2.87706,2.26308 3.6888,6.64011 1.61589,8.71302 -0.81633,0.81633 -0.81633,4.14281 0,12.50296 0.61173,6.26489 1.11224,13.70899 1.11224,16.54244 v 5.15173 l 3.75,0.61271 c 2.0625,0.33699 5.1,0.83656 6.75,1.11016 1.65,0.2736 6.00338,1.19583 9.67417,2.04938 l 6.67417,1.55193 5.40904,-3.09474 c 8.4013,-4.80673 16.51135,-6.50118 27.84872,-5.81847 14.31578,0.86206 24.8939,5.60719 24.8939,11.16688 0,1.17623 -1.25236,3.33843 -2.78302,4.8049 -2.83794,2.71892 -12.77297,6.70788 -16.70686,6.70788 -4.09148,0 -3.42818,1.25337 2.78025,5.25355 3.4153,2.20053 8.90963,6.11379 12.20963,8.69614 5.35355,4.18932 6.84766,4.8226 13.86745,5.87772 10.96064,1.64746 19.24391,5.85924 28.13695,14.30677 7.59298,7.21258 10.4956,11.74995 10.4956,16.40671 0,9.73347 -20.6594,5.5848 -36.9125,-7.4125 -2.42687,-1.94073 -6.48333,-6.76078 -9.01436,-10.71122 -11.46672,-17.89732 -44.03432,-35.78003 -76.31331,-41.90324 -12.30405,-2.33404 -13.0963,-1.95141 -5.11961,2.47261 20.7683,11.51848 29.03848,28.86185 13.81988,28.98166 -5.39116,0.0424 -14.86541,-2.47979 -20.69169,-5.50853 -2.60238,-1.35282 -5.13447,-2.45967 -5.62686,-2.45967 -0.49239,0 -1.8375,2.1375 -2.98913,4.75 -1.15163,2.6125 -3.66263,7.53521 -5.58,10.93937 l -3.48612,6.18936 9.09713,5.06233 c 11.33261,6.30632 23.08644,14.70754 31.70452,22.66129 l 6.61205,6.10234 9,0.53005 c 13.09152,0.77102 23.51355,5.68357 33.72817,15.89819 13.26121,13.26121 6.10433,21.96115 -13.13908,15.97193 -3.349,-1.04233 -6.08909,-1.70609 -6.08909,-1.47504 0,0.23106 1.50687,3.44637 3.3486,7.14514 1.84172,3.69877 4.58472,9.91591 6.09553,13.81587 2.09063,5.39664 3.50063,7.53254 5.90141,8.93957 11.79413,6.91224 22.65446,26.78642 22.65446,41.45719 0,9.88344 -6.29204,12.02843 -14.38566,4.90414 -11.50598,-10.12796 -18.54678,-25.50625 -18.59698,-40.6189 -0.0438,-13.17317 -15.66337,-41.46107 -32.89472,-59.57398 -7.8911,-8.29481 -20.15787,-18.99695 -20.91101,-18.24381 -0.2364,0.23639 0.46157,1.69322 1.55103,3.23738 6.13182,8.69102 10.21052,20.07161 10.22652,28.53453 0.009,4.98788 -0.3069,5.93512 -2.45116,7.3401 -2.03093,1.33071 -3.06668,1.41358 -5.91571,0.47332 -4.84688,-1.59962 -11.94631,-8.15195 -17.68222,-16.31959 -6.86508,-9.77553 -9.08323,-16.18942 -9.70242,-28.05503 -0.36216,-6.94028 -0.9092,-9.98621 -1.85893,-10.35066 -0.78846,-0.30256 -4.76901,2.99109 -9.61225,7.95354 -4.54657,4.65847 -11.07899,10.58007 -14.51649,13.1591 -3.4375,2.57904 -6.25,4.92755 -6.25,5.2189 0,0.29136 2.72555,3.52756 6.05677,7.19156 8.4454,9.28906 17.94684,23.74309 23.87974,36.32699 4.81867,10.22057 10.06349,24.54611 10.06349,27.48708 0,0.76834 2.13439,2.6234 4.74308,4.12236 11.1203,6.38974 21.77911,20.25293 25.16113,32.72538 1.47558,5.44176 1.32178,13.6185 -0.29626,15.75 -3.24641,4.27662 -12.47467,0.39674 -20.01842,-8.41644 -1.97424,-2.30646 -3.60575,-3.55006 -3.62557,-2.76356 -0.0867,3.43864 -1.10772,14.03197 -2.02311,20.98956 -0.92547,7.03427 -0.81278,8.04183 1.6218,14.5 3.69589,9.80405 4.53604,16.20582 3.35888,25.5939 -1.71288,13.66046 -7.26032,24.88832 -12.26042,24.81474 -6.29188,-0.0926 -9.87218,-8.33974 -10.46314,-24.1016 -0.48245,-12.8679 0.61164,-18.00121 5.86545,-27.51968 4.0431,-7.32501 5.42451,-16.33955 5.41664,-35.34692 -0.009,-21.53617 -2.24177,-34.34268 -9.13903,-52.41658 -1.89248,-4.95912 -3.60395,-9.17967 -3.80328,-9.37901 -0.19933,-0.19933 -0.11848,2.32784 0.17967,5.61592 1.04915,11.57014 -2.44226,26.68914 -7.48892,32.42967 -2.53122,2.87924 -6.77716,2.21406 -9.5748,-1.5 -4.23722,-5.62519 -5.96047,-12.31299 -6.4282,-24.94722 -0.48693,-13.15293 1.11596,-20.20587 6.77228,-29.79902 1.65122,-2.80047 3.00222,-5.33115 3.00222,-5.62372 0,-0.62119 -7.3948,-10.13449 -12.28256,-15.80135 -4.17359,-4.83885 -5.98717,-4.40458 -9.01845,2.1595 -2.11449,4.57882 -2.21976,6.27971 -2.73959,44.26181 -0.45938,33.56526 -0.79598,40.25123 -2.24034,44.5 -1.75597,5.16543 -6.13737,13.02687 -9.83102,17.63957 l -2.11365,2.63957 2.83907,6.86043 c 2.52999,6.11357 2.83936,8.05795 2.84179,17.86043 0.003,12.49795 -1.90116,20.49962 -6.05275,25.4335 -5.74326,6.82548 -12.55894,1.71018 -15.90299,-11.93552 -0.94322,-3.84889 -1.84456,-6.99798 -2.00298,-6.99798 -0.15842,0 -1.78567,2.33385 -3.6161,5.18633 -1.83043,2.85248 -5.66939,8.21663 -8.53102,11.92034 -4.00978,5.1897 -5.35538,7.84159 -5.86755,11.56367 -1.6269,11.82301 -4.45824,18.71472 -11.11752,27.06099 -6.06341,7.59944 -9.99842,11.14226 -14.86434,13.38287 -5.0898,2.3437 -6.05507,2.33073 -8.5,-0.1142 z m 46.57848,-114.53591 c 6.61687,-4.08171 11.05744,-11.4623 11.91429,-19.8025 0.34816,-3.38887 0.49222,-11.11159 0.32013,-17.16159 l -0.3129,-11 -25.84927,-0.26708 -25.84927,-0.26709 0.37589,17.26709 c 0.41677,19.14474 0.84996,20.72773 7.48902,27.36678 5.7298,5.72981 10.53549,7.50726 19.41211,7.17984 6.4108,-0.23647 8.33679,-0.74731 12.5,-3.31545 z m 12.91836,-84.96409 c 0.37205,-14.82712 4.40416,-25.33965 13.36962,-34.85735 1.99845,-2.12154 7.95539,-7.15076 13.23765,-11.17606 21.1538,-16.12002 33.27086,-35.05307 36.91623,-57.68202 1.58942,-9.86648 0.74716,-32.0888 -1.52686,-40.28457 -8.63903,-31.13591 -31.66108,-54.51494 -63.19689,-64.17684 -7.93839,-2.43216 -10.35756,-2.70063 -24.79659,-2.75185 -19.24282,-0.0683 -25.12067,1.29042 -42,9.70836 -24.52717,12.23202 -42.43778,35.97287 -48.05578,63.69886 -2.26441,11.17533 -1.5434,31.19461 1.50719,41.84784 6.00383,20.96649 16.29024,35.46778 35.45297,49.97987 19.48285,14.75452 25.06486,24.50732 26.30523,45.96007 l 0.59358,10.2663 25.97136,-0.2663 25.97137,-0.26631 z"
       style="fill:#d975ab" />
  </g>
</svg>
